<svg width="647" height="107" viewBox="0 0 647 107" fill="none" xmlns="http://www.w3.org/2000/svg">
<path opacity="0.7" d="M72.94 9.31999C73.5 12.3067 73.9667 20.4733 74.34 33.82C74.7133 47.0733 74.9 59.86 74.9 72.18C74.9 85.1533 74.6667 92.48 74.2 94.16C73.7333 95.4667 72.8 96.8667 71.4 98.36C70 99.76 68.6933 100.647 67.48 101.02C66.64 101.3 65.7067 101.44 64.68 101.44C62.72 101.44 60.3867 100.88 57.68 99.76C55.0667 98.5467 51.8 96.6333 47.88 94.02C44.9867 92.1533 41.3933 89.0733 37.1 84.78C32.8067 80.4867 29.4467 76.6133 27.02 73.16L23.24 67.84L22.82 70.08L21.98 77.64C21.5133 81.28 20.9067 85.0133 20.16 88.84C19.5067 92.5733 18.8533 95.2333 18.2 96.82C17.64 98.4067 17.2667 99.2 17.08 99.2C16.9867 99.2 16.94 99.1067 16.94 98.92C16.94 98.36 17.1267 97.52 17.5 96.4C18.06 94.3467 18.34 93.0867 18.34 92.62V92.48C18.1533 92.48 17.8267 93.2267 17.36 94.72C16.4267 97.8933 14.7933 100.833 12.46 103.54C11.2467 104.66 10.64 104.94 10.64 104.38C10.64 103.82 10.2667 103.353 9.52 102.98C8.86667 102.607 8.35333 102.607 7.98 102.98C7.7 103.447 7.23333 103.447 6.58 102.98C5.92667 102.7 5.6 102.747 5.6 103.12C5.6 103.307 5.50667 103.353 5.32 103.26C5.22667 103.167 5.13333 102.98 5.04 102.7C4.94667 102.42 4.80667 102.187 4.62 102C4.43333 101.72 4.24667 101.58 4.06 101.58C3.78 101.58 3.64 101.113 3.64 100.18C3.64 99.5267 3.54667 99.2 3.36 99.2C3.26667 99.1067 2.98667 99.2933 2.52 99.76C2.14667 100.133 1.77333 100.32 1.4 100.32C0.746667 100.32 0.373333 99.2933 0.28 97.24V96.96C0.84 94.3467 1.12 91.08 1.12 87.16C1.12 86.9733 1.07333 86.8333 0.98 86.74C1.16667 85.1533 1.44667 82.0267 1.82 77.36C2.28667 71.48 2.52 64.6667 2.52 56.92C2.52 46.56 2.00667 38.3933 0.98 32.42C0.606667 30.2733 0.326667 25.9333 0.14 19.4C0.0466667 17.16 0 14.78 0 12.26C0 10.86 0.0466667 10.0667 0.14 9.87999C0.326667 9.6 0.606667 9.50666 0.98 9.6H1.4C1.77333 9.6 2.1 9.41333 2.38 9.04C2.56667 8.66666 2.66 8.52666 2.66 8.61999C2.75333 8.61999 2.89333 8.80666 3.08 9.17999C3.26667 9.64666 3.40667 9.87999 3.5 9.87999C3.59333 9.78666 3.64 9.64666 3.64 9.46C3.73333 9.18 3.82667 8.89999 3.92 8.61999C4.10667 7.59333 4.34 6.93999 4.62 6.65999C5.36667 6.19333 6.72 5.81999 8.68 5.54C10.64 5.26 12.6933 5.12 14.84 5.12C17.92 5.21333 19.8333 5.35333 20.58 5.54C21.42 5.63333 21.84 5.86666 21.84 6.24C21.84 6.70666 22.3533 6.94 23.38 6.94C24.22 6.94 25.2 7.03333 26.32 7.21999C27.0667 7.40666 27.5333 7.68667 27.72 8.06C28 8.43333 28.1867 9.55333 28.28 11.42C28.4667 13.66 28.8867 16.7867 29.54 20.8C30.1933 24.72 30.8 27.8933 31.36 30.32C32.3867 34.7067 33.9733 39.6067 36.12 45.02C38.2667 50.34 40.32 54.4933 42.28 57.48C43.5867 59.6267 45.3133 62.1467 47.46 65.04C49.7 67.84 51.38 69.8 52.5 70.92L54.32 72.6L54.6 67.56C54.9733 61.0267 55.2067 53.7 55.3 45.58C55.4867 34.0067 55.8133 26.3067 56.28 22.48L56.98 16.32L56.7 24.02C56.5133 28.5933 56.56 31.6267 56.84 33.12C57.0267 33.68 57.1667 33.3533 57.26 32.14C57.4467 30.8333 57.5867 28.9667 57.68 26.54C57.8667 21.3133 58.1933 17.0667 58.66 13.8C59.1267 10.44 59.92 7.31333 61.04 4.42C61.32 3.58 61.5067 3.06666 61.6 2.88C61.7867 2.6 61.9267 2.83333 62.02 3.58C62.1133 4.32666 62.44 4.97999 63 5.54C63.6533 6.00666 64.12 6.05333 64.4 5.68C64.5867 5.58666 64.8667 4.74666 65.24 3.16C65.4267 1.94666 65.52 1.75999 65.52 2.59999C65.7067 3.81333 65.9867 4.46666 66.36 4.55999L66.64 4.69999C67.0133 4.69999 67.2 4.04666 67.2 2.73999C67.2933 1.52666 67.3867 1.29333 67.48 2.03999C67.5733 3.06666 67.8067 4.04666 68.18 4.98C68.6467 5.91333 69.02 6.38 69.3 6.38C69.58 6.38 69.72 7.17333 69.72 8.76C69.72 9.69333 69.72 10.3 69.72 10.58C69.8133 10.7667 70.0467 10.58 70.42 10.02C70.98 9.08666 71.26 8.24666 71.26 7.5C71.26 6.93999 71.3533 6.65999 71.54 6.65999C71.82 6.65999 72.1 6.93999 72.38 7.5C72.66 7.96666 72.8467 8.57333 72.94 9.31999ZM3.22 13.1C3.31333 11.6067 3.26667 11.0933 3.08 11.56C2.89333 11.9333 2.75333 12.7733 2.66 14.08C2.56667 15.2933 2.61333 15.76 2.8 15.48C2.8 15.3867 2.84667 15.1533 2.94 14.78C3.03333 14.4067 3.12667 13.8467 3.22 13.1ZM80.7002 37.74C79.5802 36.4333 79.0202 35.5467 79.0202 35.08C79.0202 34.8933 78.9268 34.7533 78.7402 34.66C78.6468 34.5667 78.5068 34.5667 78.3202 34.66C77.6668 34.8467 77.2002 27.38 76.9202 12.26L76.7802 4.55999L78.7402 4.28C80.4202 4.09333 84.2002 3.90666 90.0802 3.72L99.3202 3.29999V15.9C99.3202 20.1933 99.2735 23.3667 99.1802 25.42C99.1802 27.38 98.9935 28.36 98.6202 28.36C98.1535 28.36 97.8268 27.7533 97.6402 26.54C97.6402 26.0733 97.5935 25.7467 97.5002 25.56C97.5002 25.3733 97.5002 25.2333 97.5002 25.14L97.3602 26.82C97.3602 28.3133 97.1735 29.4333 96.8002 30.18C96.7068 30.46 96.6135 30.6 96.5202 30.6C96.5202 30.6 96.4268 30.04 96.2402 28.92C96.2402 27.8933 96.1935 27.38 96.1002 27.38C96.0068 27.38 95.7735 29.2467 95.4002 32.98C95.2135 34.4733 95.0268 35.6867 94.8402 36.62C94.6535 37.5533 94.3735 38.16 94.0002 38.44C93.8135 38.6267 93.5802 38.7667 93.3002 38.86C93.0202 38.86 92.8335 38.8133 92.7402 38.72H92.6002C92.5068 38.72 92.1802 39 91.6202 39.56C91.2468 40.2133 90.6868 40.54 89.9402 40.54C89.5668 40.54 89.2402 40.3533 88.9602 39.98C88.5868 39.6067 88.0268 39.56 87.2802 39.84H86.7202C86.0668 39.84 85.4135 39.6533 84.7602 39.28C84.3868 39 84.0135 38.86 83.6402 38.86C83.3602 38.7667 83.1268 38.8133 82.9402 39C82.8468 39.0933 82.7068 39.14 82.5202 39.14C82.2402 39.14 81.6335 38.6733 80.7002 37.74ZM96.6602 9.73999C96.6602 9.64666 96.6135 9.55333 96.5202 9.46C96.5202 9.36666 96.5202 9.31999 96.5202 9.31999V10.86C96.5202 12.1667 96.5668 12.6333 96.6602 12.26C96.7535 11.98 96.8002 11.56 96.8002 11C96.8002 10.3467 96.7535 9.92666 96.6602 9.73999ZM96.2402 18.14C96.1468 19.26 96.1002 20.0533 96.1002 20.52C96.1002 20.8933 96.1935 20.7067 96.3802 19.96C96.6602 17.72 96.8002 16.3667 96.8002 15.9C96.8002 14.6867 96.7535 14.08 96.6602 14.08C96.5668 14.08 96.4268 15.4333 96.2402 18.14ZM96.2402 34.8C96.4268 33.8667 96.5668 33.4 96.6602 33.4C96.7535 33.4 96.8002 33.8667 96.8002 34.8C96.8002 35.64 96.6602 36.06 96.3802 36.06C96.1002 36.06 96.0535 35.64 96.2402 34.8ZM101 80.58C101.373 82.9133 101.56 85.9 101.56 89.54C101.56 92.2467 101.42 94.6267 101.14 96.68C100.86 98.64 100.533 99.62 100.16 99.62C99.6002 99.62 99.3202 99.3867 99.3202 98.92C99.3202 98.7333 99.2268 98.7333 99.0402 98.92C98.9468 99.1067 98.8535 99.34 98.7602 99.62C98.5735 100.18 98.4335 100.507 98.3402 100.6C98.2468 100.6 98.1068 100.367 97.9202 99.9C97.8268 99.5267 97.6868 99.34 97.5002 99.34C97.4068 99.34 97.2202 99.8067 96.9402 100.74C96.3802 102.047 95.6802 102.747 94.8402 102.84C93.3468 103.213 91.0135 103.4 87.8402 103.4C86.5335 103.4 85.6468 103.353 85.1802 103.26C84.6202 103.26 83.2668 103.027 81.1202 102.56L78.8802 102L79.1602 87.72C79.4402 76.52 79.6735 68.4 79.8602 63.36C80.0468 58.2267 80.2802 55.3333 80.5602 54.68L80.8402 54.12C80.9335 54.12 81.0268 54.68 81.1202 55.8C81.1202 57.0133 81.1668 57.62 81.2602 57.62C81.3535 57.62 81.5402 56.8267 81.8202 55.24C81.9135 54.68 82.2402 53.8867 82.8002 52.86C83.4535 51.8333 84.0602 51.04 84.6202 50.48C85.2735 49.8267 85.6002 49.7333 85.6002 50.2C85.6002 50.5733 86.4402 50.7133 88.1202 50.62C88.7735 50.62 89.3802 50.5733 89.9402 50.48C90.5002 50.3867 90.7802 50.2467 90.7802 50.06C90.7802 49.9667 90.8268 49.92 90.9202 49.92C91.1068 49.92 91.4802 50.1067 92.0402 50.48C92.6002 50.76 93.0202 51.0867 93.3002 51.46C93.3935 51.5533 93.5802 51.6 93.8602 51.6C94.4202 51.6 94.8402 51.5067 95.1202 51.32C95.6802 50.9467 96.0535 50.8067 96.2402 50.9C96.5202 50.9 96.7535 51.1333 96.9402 51.6C97.8735 53.1867 98.5735 55.38 99.0402 58.18C99.6002 60.98 99.9735 64.8533 100.16 69.8C100.347 73.72 100.627 77.3133 101 80.58ZM98.6202 94.16C98.8068 93.6933 98.8068 93.2733 98.6202 92.9C98.5268 92.62 98.4802 92.8067 98.4802 93.46C98.4802 94.1133 98.5268 94.3467 98.6202 94.16ZM98.2002 97.38C98.3868 96.82 98.3868 96.26 98.2002 95.7C98.1068 95.42 98.0135 95.42 97.9202 95.7C97.9202 95.8867 97.9202 96.1667 97.9202 96.54C97.9202 96.9133 97.9202 97.24 97.9202 97.52C98.0135 97.7067 98.1068 97.66 98.2002 97.38ZM172.685 7.35999C173.898 14.64 174.505 22.6667 174.505 31.44C174.505 38.8133 174.085 46.2333 173.245 53.7L171.985 67.14C171.705 69.8467 171.191 73.6733 170.445 78.62C169.791 83.4733 169.185 87.2533 168.625 89.96C168.438 91.36 168.065 93.04 167.505 95C166.945 96.8667 166.571 97.7067 166.385 97.52V97.38L166.665 95.56C166.945 94.72 167.085 93.5533 167.085 92.06V90.8C166.991 90.8933 166.898 91.08 166.805 91.36C166.805 91.64 166.758 92.0133 166.665 92.48C166.385 93.9733 165.825 95.6067 164.985 97.38C164.145 99.1533 163.211 100.693 162.185 102C161.625 102.653 161.205 103.073 160.925 103.26C160.645 103.447 160.505 103.307 160.505 102.84C160.505 102.28 160.318 101.86 159.945 101.58C159.571 101.207 159.151 101.02 158.685 101.02C157.845 101.02 157.425 101.393 157.425 102.14C157.425 102.42 157.378 102.56 157.285 102.56C157.285 102.56 157.191 102.42 157.005 102.14C156.818 101.86 156.631 101.673 156.445 101.58C156.258 101.393 156.118 101.3 156.025 101.3C155.745 101.3 155.511 101.58 155.325 102.14C155.325 102.42 155.278 102.513 155.185 102.42C155.091 102.42 155.045 102.233 155.045 101.86C155.045 101.207 154.765 100.693 154.205 100.32C153.831 100.227 153.551 99.6667 153.365 98.64L153.225 97.52L150.985 99.9L150.145 98.08C149.865 97.3333 149.725 95.84 149.725 93.6C149.725 89.2133 150.285 80.8133 151.405 68.4C152.058 61.0267 152.478 54.4467 152.665 48.66L153.085 39.98L151.265 41.38C149.771 42.5933 147.251 44.46 143.705 46.98C140.251 49.4067 137.125 51.5533 134.325 53.42L129.705 56.36L129.005 63.92C128.445 70.4533 127.418 76.94 125.925 83.38C124.525 89.7267 123.078 94.0667 121.585 96.4C121.305 96.8667 121.025 97.24 120.745 97.52C120.558 97.7067 120.511 97.66 120.605 97.38C122.285 93.18 122.985 90.94 122.705 90.66C122.611 90.5667 122.518 90.6133 122.425 90.8C122.331 90.8933 122.238 91.08 122.145 91.36C120.745 95.6533 118.225 99.2467 114.585 102.14C114.211 102.42 113.978 102.513 113.885 102.42C113.791 102.42 113.745 102.233 113.745 101.86C113.745 101.207 113.371 100.693 112.625 100.32C111.971 99.9467 111.458 99.9933 111.085 100.46C110.805 100.74 110.571 100.88 110.385 100.88C110.291 100.88 110.105 100.693 109.825 100.32C109.545 99.9467 109.311 99.76 109.125 99.76C109.031 99.6667 108.891 99.8067 108.705 100.18C108.331 100.833 108.145 100.74 108.145 99.9C108.145 99.1533 107.958 98.6867 107.585 98.5C107.305 98.22 107.258 97.66 107.445 96.82L107.725 95.84C107.725 95.7467 107.678 95.7 107.585 95.7C107.305 95.7 106.931 95.8867 106.465 96.26C105.998 96.54 105.625 96.68 105.345 96.68C104.598 96.68 104.225 95.9333 104.225 94.44C104.225 93.4133 104.551 91.2667 105.205 88C105.951 84.7333 106.511 81.6533 106.885 78.76C107.351 75.8667 107.771 72.4133 108.145 68.4C108.611 63.92 108.845 61.3533 108.845 60.7C108.845 59.6733 108.658 58.9733 108.285 58.6C107.818 58.1333 107.818 57.76 108.285 57.48C108.471 57.2933 108.518 57.2 108.425 57.2C108.425 57.1067 108.285 57.06 108.005 57.06C107.538 57.06 107.258 56.92 107.165 56.64C107.071 56.2667 107.258 55.9867 107.725 55.8C107.818 55.8 107.865 55.8 107.865 55.8C107.865 55.7067 107.865 55.66 107.865 55.66C107.865 55.4733 107.398 55.24 106.465 54.96C105.158 54.5867 104.458 53.9333 104.365 53C104.178 52.5333 103.945 51.74 103.665 50.62C103.478 50.06 103.385 49.0333 103.385 47.54C103.385 45.9533 103.478 44.32 103.665 42.64C103.851 40.96 104.038 39.84 104.225 39.28C104.598 38.2533 104.738 37.6933 104.645 37.6C104.645 37.32 105.018 37.18 105.765 37.18C106.418 37.18 107.118 37.0867 107.865 36.9C108.238 36.8067 108.471 36.5267 108.565 36.06C108.751 35.5 108.845 34.1933 108.845 32.14C108.938 29.9933 108.985 27.1 108.985 23.46C108.985 17.3 109.078 13.1467 109.265 11C109.545 8.85333 110.011 7.77999 110.665 7.77999C110.758 7.77999 110.945 7.82666 111.225 7.91999C111.598 7.91999 111.878 7.77999 112.065 7.5C112.251 7.12666 112.485 7.17333 112.765 7.64L113.045 7.77999C113.231 7.77999 113.371 7.40666 113.465 6.65999C113.745 5.44666 114.398 4.7 115.425 4.42C116.451 4.04666 118.598 3.86 121.865 3.86C123.451 3.86 124.805 3.90666 125.925 3.99999C127.138 4.09333 127.978 4.18666 128.445 4.28L130.405 4.84L131.525 5.25999V29.48L133.205 28.64C134.791 27.8933 136.845 26.4933 139.365 24.44C141.885 22.3867 144.265 20.1933 146.505 17.86C148.465 15.9 149.678 14.5467 150.145 13.8C150.611 13.0533 150.845 12.26 150.845 11.42C150.845 10.6733 150.891 10.2067 150.985 10.02C151.171 9.83333 151.451 9.78666 151.825 9.87999H151.965C152.711 9.87999 153.505 9.08666 154.345 7.5C155.558 5.91333 156.211 5.12 156.305 5.12C157.425 5.02666 159.105 4.46666 161.345 3.43999C163.211 2.41333 164.145 2.22666 164.145 2.88C164.145 3.16 164.378 3.34666 164.845 3.43999C165.405 3.53333 166.151 3.58 167.085 3.58C168.858 3.58 170.025 3.67333 170.585 3.86C171.238 3.95333 171.705 4.23333 171.985 4.69999C172.265 5.16666 172.498 6.05333 172.685 7.35999ZM112.625 11.14C112.811 10.4867 112.811 9.88 112.625 9.31999C112.531 9.04 112.438 9.04 112.345 9.31999C112.345 9.50666 112.345 9.78666 112.345 10.16C112.345 10.5333 112.345 10.86 112.345 11.14C112.438 11.3267 112.531 11.3267 112.625 11.14ZM112.065 14.64C112.251 13.9867 112.251 13.38 112.065 12.82C112.065 12.7267 112.018 12.68 111.925 12.68C111.925 12.7733 111.878 12.9133 111.785 13.1C111.785 13.2867 111.785 13.52 111.785 13.8C111.785 14.1733 111.785 14.4533 111.785 14.64C111.878 14.8267 111.971 14.8267 112.065 14.64ZM214.697 16.04C216.19 21.36 216.563 24.02 215.817 24.02L205.597 25.56C199.903 26.4933 196.497 26.96 195.377 26.96C194.817 26.96 194.443 26.9133 194.257 26.82C194.163 26.6333 194.07 26.3067 193.977 25.84C193.79 24.9067 193.51 22.1533 193.137 17.58C193.043 15.7133 192.903 14.8267 192.717 14.92C192.53 14.92 192.437 14.8733 192.437 14.78C192.25 14.0333 192.39 13.66 192.857 13.66C193.043 13.66 193.23 13.7067 193.417 13.8C193.603 13.8933 193.697 14.0333 193.697 14.22C193.697 14.5 193.93 14.1733 194.397 13.24L195.097 11.7L195.237 13.24C195.237 13.8933 195.283 14.22 195.377 14.22L195.657 12.82C195.843 11.8867 195.937 11.14 195.937 10.58L195.797 9.31999C195.703 8.48 195.89 7.64 196.357 6.8C196.917 5.86666 197.523 5.39999 198.177 5.39999C198.83 5.39999 199.25 5.16666 199.437 4.69999C199.623 4.23333 200.977 3.99999 203.497 3.99999C204.897 3.99999 206.297 4.09333 207.697 4.28C209.19 4.46666 210.17 4.74666 210.637 5.12C211.01 5.30666 211.29 5.53999 211.477 5.81999C211.757 6.1 211.943 6.33333 212.037 6.51999C212.037 6.61333 212.083 6.70666 212.177 6.8C212.363 6.89333 212.55 6.94 212.737 6.94C213.203 6.94 213.437 7.08 213.437 7.35999L214.697 16.04ZM195.097 9.87999C195.097 9.97333 195.05 10.02 194.957 10.02C194.957 9.92666 194.91 9.78666 194.817 9.6C194.817 9.41333 194.817 9.17999 194.817 8.9C194.817 8.52666 194.817 8.24666 194.817 8.06C194.91 7.87333 195.003 7.87333 195.097 8.06V9.87999ZM196.497 23.32C196.59 23.2267 196.637 22.6667 196.637 21.64C196.637 20.0533 196.59 18.7933 196.497 17.86C196.403 17.3933 196.263 16.32 196.077 14.64C195.89 12.8667 195.797 12.54 195.797 13.66C195.797 15.5267 195.843 17.1133 195.937 18.42L196.497 23.32ZM213.577 32.7C214.51 33.1667 215.07 33.5867 215.257 33.96C215.537 34.3333 215.723 35.3133 215.817 36.9C215.91 37.74 215.957 39.5133 215.957 42.22C215.957 45.6733 215.817 49.5 215.537 53.7C215.35 57.9 215.07 61.0267 214.697 63.08C213.95 67.7467 212.55 72.5067 210.497 77.36C208.537 82.12 206.25 86.1333 203.637 89.4C202.237 91.2667 199.95 93.6467 196.777 96.54C193.697 99.34 191.55 101.067 190.337 101.72L188.377 102.7L190.197 101.16C191.503 100.04 192.157 99.34 192.157 99.06C192.157 98.9667 192.11 98.92 192.017 98.92C191.737 98.92 191.13 99.2933 190.197 100.04C188.983 101.067 187.583 101.673 185.997 101.86L182.637 102.42C182.077 102.513 181.797 102.373 181.797 102V101.3C181.797 100.553 181.517 99.9933 180.957 99.62C180.303 99.34 179.93 99.2933 179.837 99.48L179.417 98.64C179.043 97.8933 178.717 97.6133 178.437 97.8C178.25 97.9867 178.157 97.38 178.157 95.98V95.14C178.157 94.6733 178.11 94.3933 178.017 94.3C177.923 94.1133 177.643 93.9733 177.177 93.88C176.803 93.7867 176.523 93.6467 176.337 93.46C176.243 93.2733 176.243 92.9 176.337 92.34C176.43 91.5933 176.943 90.5667 177.877 89.26C178.81 87.86 180.35 85.9467 182.497 83.52C184.27 81.56 186.043 79.1333 187.817 76.24C189.683 73.2533 190.943 70.8733 191.597 69.1C192.157 67.6067 192.483 65.9733 192.577 64.2C192.763 62.4267 192.95 58.5533 193.137 52.58C193.417 45.3 193.557 40.4 193.557 37.88C193.65 37.1333 193.93 36.6667 194.397 36.48C194.863 36.2933 195.143 36.5267 195.237 37.18C195.237 37.3667 195.283 37.3667 195.377 37.18C195.563 36.9933 195.703 36.76 195.797 36.48C195.983 36.0133 196.123 35.78 196.217 35.78C196.403 35.6867 196.543 35.8733 196.637 36.34C196.823 36.62 196.963 36.76 197.057 36.76C197.15 36.76 197.337 36.2467 197.617 35.22C198.177 33.6333 198.69 32.7933 199.157 32.7C199.437 32.5133 200.557 32.3733 202.517 32.28C204.57 32.0933 206.623 32 208.677 32C211.01 32 212.643 32.2333 213.577 32.7ZM197.057 34.8C196.963 34.8933 196.87 34.8933 196.777 34.8C196.777 34.6133 196.777 34.4267 196.777 34.24C196.777 33.5867 196.87 33.4467 197.057 33.82C197.243 34.2867 197.243 34.6133 197.057 34.8ZM196.497 43.06C196.59 42.6867 196.637 41.9867 196.637 40.96L196.497 40.68C196.403 40.68 196.357 41.0533 196.357 41.8C196.357 42.2667 196.357 42.6867 196.357 43.06C196.45 43.34 196.497 43.34 196.497 43.06ZM274.537 90.52C274.723 92.9467 274.677 94.16 274.397 94.16C274.21 94.16 274.07 93.6467 273.977 92.62C273.883 91.78 273.743 91.08 273.557 90.52C273.37 89.96 273.23 89.6333 273.137 89.54C273.043 89.4467 273.043 89.7267 273.137 90.38L273.277 92.9C273.277 95.42 273.09 97.7067 272.717 99.76C272.343 101.813 271.97 102.513 271.597 101.86C271.503 101.673 271.27 101.487 270.897 101.3C270.617 101.113 270.29 101.02 269.917 101.02C269.45 101.02 269.123 101.067 268.937 101.16C268.75 101.253 268.61 101.487 268.517 101.86C268.423 102.327 268.283 102.56 268.097 102.56C268.003 102.653 267.77 102.607 267.397 102.42C267.023 102.327 266.743 102.28 266.557 102.28C266.463 102.373 266.463 102.653 266.557 103.12C266.557 103.68 266.463 103.773 266.277 103.4C265.903 102.84 265.437 102.56 264.877 102.56C264.223 102.373 263.71 101.907 263.337 101.16L262.777 99.9L262.077 101.58C261.797 102.327 261.61 102.747 261.517 102.84C261.423 102.933 261.19 102.793 260.817 102.42L259.277 101.02C258.623 100.367 257.877 96.82 257.037 90.38C256.197 83.8467 255.637 79.4133 255.357 77.08H239.957L239.537 85.34C239.35 90.5667 239.07 93.9733 238.697 95.56L238.277 97.66V95.28C238.463 92.3867 238.417 90.94 238.137 90.94C237.95 90.94 237.81 91.6867 237.717 93.18C237.623 94.58 237.297 96.1667 236.737 97.94C236.177 99.62 235.57 100.973 234.917 102C234.263 102.933 233.797 103.213 233.517 102.84C233.143 102.187 232.583 101.86 231.837 101.86C231.277 101.86 230.763 102.233 230.297 102.98C230.11 103.353 229.923 103.587 229.737 103.68C229.643 103.773 229.597 103.633 229.597 103.26C229.597 102.7 229.317 102.467 228.757 102.56H228.337C227.403 102.56 226.517 101.767 225.677 100.18C225.397 99.7133 225.21 99.48 225.117 99.48C225.117 99.48 224.883 99.8533 224.417 100.6C224.137 101.253 223.857 101.58 223.577 101.58C223.297 101.58 222.877 100.973 222.317 99.76C221.477 97.8933 220.777 93.46 220.217 86.46C219.75 79.46 219.47 71.0133 219.377 61.12C219.377 54.4 219.19 47.3067 218.817 39.84C218.443 33.7733 218.257 28.5 218.257 24.02C218.257 19.9133 218.443 16.4133 218.817 13.52C219.283 10.0667 219.75 8.34 220.217 8.34C220.683 8.34 220.917 8.66666 220.917 9.31999C221.01 9.78666 221.197 9.64667 221.477 8.9C221.85 7.96666 222.177 7.78 222.457 8.34C222.643 8.62 222.783 8.71333 222.877 8.61999C223.063 8.43333 223.203 8.15333 223.297 7.77999C223.483 6.84666 223.81 6.19333 224.277 5.81999C224.743 5.44666 225.583 5.21333 226.797 5.12C228.477 4.93333 235.71 4.74666 248.497 4.55999L262.357 4.28C266.277 4.28 268.377 4.51333 268.657 4.98C269.217 5.54 269.963 5.91333 270.897 6.09999L272.437 6.38L272.157 14.36C271.877 18.84 271.737 27.8933 271.737 41.52C271.737 50.3867 272.437 63.36 273.837 80.44C274.303 85.8533 274.537 89.2133 274.537 90.52ZM222.737 7.21999C222.55 7.40666 222.457 7.17333 222.457 6.51999C222.457 6.33333 222.503 6.19333 222.597 6.09999C222.69 6.00666 222.783 6.05333 222.877 6.24C223.063 6.8 223.017 7.12666 222.737 7.21999ZM243.457 23.74C243.363 23.74 243.27 23.7867 243.177 23.88C243.083 23.88 243.037 23.88 243.037 23.88C243.13 23.88 243.363 23.9267 243.737 24.02C244.203 24.02 244.763 24.02 245.417 24.02C246.257 24.02 246.91 24.02 247.377 24.02C247.843 23.9267 247.797 23.8333 247.237 23.74C246.957 23.6467 246.35 23.6 245.417 23.6C244.483 23.6 243.83 23.6467 243.457 23.74ZM245.557 54.82L250.877 54.54L250.737 53.28C250.55 51.9733 250.363 49.36 250.177 45.44C250.083 42.36 249.803 38.2067 249.337 32.98L248.777 26.68H244.997C242.57 26.68 241.263 26.82 241.077 27.1C240.89 27.2867 240.703 32 240.517 41.24L240.097 54.96L245.557 54.82ZM240.237 73.58C240.05 73.6733 240.003 73.7667 240.097 73.86C240.19 73.9533 240.33 74 240.517 74C241.17 74 241.403 73.9067 241.217 73.72C240.843 73.5333 240.517 73.4867 240.237 73.58ZM247.937 73.86C248.217 73.86 248.403 73.86 248.497 73.86C248.683 73.7667 248.683 73.6733 248.497 73.58H247.237C247.05 73.6733 247.05 73.7667 247.237 73.86C247.423 73.86 247.657 73.86 247.937 73.86ZM251.997 74.42C252.557 74.42 252.977 74.42 253.257 74.42C253.537 74.3267 253.49 74.2333 253.117 74.14C252.93 74.0467 252.557 74 251.997 74C251.437 74 251.063 74.0467 250.877 74.14L250.597 74.28C250.597 74.3733 251.063 74.42 251.997 74.42ZM241.077 75.4C241.45 75.4 241.73 75.4 241.917 75.4C242.103 75.3067 242.103 75.2133 241.917 75.12C241.543 74.9333 241.03 74.9333 240.377 75.12C240.19 75.2133 240.143 75.3067 240.237 75.4C240.423 75.4 240.703 75.4 241.077 75.4ZM330.456 102C326.629 102 324.202 101.813 323.176 101.44L321.076 100.74L327.656 101.16L324.996 100.46C323.409 100.087 322.102 99.6667 321.076 99.2C320.142 98.64 319.162 97.94 318.136 97.1C317.482 96.54 317.156 96.12 317.156 95.84C317.156 95.6533 317.296 95.42 317.576 95.14C318.042 94.6733 318.276 94.2067 318.276 93.74C318.276 93.2733 317.996 92.8533 317.436 92.48C316.876 92.2 316.782 92.06 317.156 92.06C317.529 92.06 317.716 91.8267 317.716 91.36C317.809 90.8 317.669 90.52 317.296 90.52C317.016 90.52 317.296 90.1 318.136 89.26C319.069 88.3267 319.629 87.86 319.816 87.86C320.189 87.86 320.329 87.72 320.236 87.44C320.142 87.0667 319.862 86.74 319.396 86.46C319.022 86.18 318.836 85.9933 318.836 85.9C318.929 85.7133 319.256 85.3867 319.816 84.92C320.562 84.2667 322.849 83.7533 326.676 83.38C332.089 82.7267 336.429 81.7933 339.696 80.58C342.962 79.3667 345.809 77.64 348.236 75.4C349.916 73.9067 351.176 72.46 352.016 71.06C352.949 69.66 353.416 68.4933 353.416 67.56C353.416 66.6267 352.949 66.02 352.016 65.74C346.509 64.5267 341.329 62.3333 336.476 59.16C331.716 55.9867 327.982 52.3 325.276 48.1C322.942 44.5533 320.936 40.7733 319.256 36.76C317.669 32.6533 316.689 28.9667 316.316 25.7C316.036 23.8333 315.896 22.2 315.896 20.8C315.896 19.3067 316.036 17.3 316.316 14.78C316.689 10.4867 317.016 8.24666 317.296 8.06C317.669 7.68667 317.996 7.03333 318.276 6.09999C318.649 5.35333 319.022 4.88666 319.396 4.69999C319.769 4.51333 320.749 4.42 322.336 4.42C322.989 4.32666 324.062 4.28 325.556 4.28C327.049 4.28 328.029 4.32666 328.496 4.42L347.816 4.69999C355.189 4.88666 360.882 5.02666 364.896 5.12C368.909 5.21333 371.476 5.30666 372.596 5.39999C373.809 5.49333 374.556 5.68 374.836 5.95999C375.116 6.24 375.162 6.38 374.976 6.38C374.882 6.38 374.602 6.33333 374.136 6.24C373.016 6.05333 372.269 6.14666 371.896 6.51999C371.522 6.70666 371.382 6.84667 371.476 6.94C371.662 7.03333 372.036 7.08 372.596 7.08C374.462 7.08 376.142 7.77999 377.636 9.17999C378.196 9.74 378.476 10.44 378.476 11.28V12.12L378.336 13.38C378.336 13.94 378.429 14.22 378.616 14.22C379.082 14.22 379.176 14.8733 378.896 16.18C378.616 17.4867 378.196 18.3733 377.636 18.84C377.356 19.0267 377.449 19.4933 377.916 20.24C378.849 21.7333 377.496 22.9 373.856 23.74C370.216 24.58 363.216 25.28 352.856 25.84C346.976 26.12 343.196 26.4933 341.516 26.96C340.956 27.0533 340.536 27.1933 340.256 27.38C339.976 27.4733 339.836 27.7067 339.836 28.08C339.836 28.4533 339.882 28.78 339.976 29.06C340.162 29.9 340.769 31.6733 341.796 34.38C343.849 39.3267 347.769 42.92 353.556 45.16C355.516 46 357.056 46.5133 358.176 46.7C359.296 46.7933 361.862 46.8867 365.876 46.98C371.382 47.1667 374.509 47.4 375.256 47.68C376.002 47.96 376.609 48.1 377.076 48.1C377.636 47.9133 377.916 50.2 377.916 54.96C377.916 57.48 377.869 59.44 377.776 60.84C377.309 67.3733 375.676 73.2067 372.876 78.34C370.169 83.4733 366.202 88.0467 360.976 92.06C359.109 93.5533 356.262 95.28 352.436 97.24C348.609 99.1067 345.622 100.32 343.476 100.88C342.262 101.253 340.396 101.533 337.876 101.72C335.449 101.907 332.976 102 330.456 102ZM441.398 32.14C442.051 32.5133 442.238 33.1667 441.958 34.1C441.865 34.4733 441.445 34.94 440.698 35.5C439.951 36.06 438.645 36.9 436.778 38.02C434.351 39.3267 431.178 40.8667 427.258 42.64C423.431 44.32 421.285 45.16 420.818 45.16C420.538 45.16 420.351 47.0733 420.258 50.9C420.258 54.7267 420.258 61.6333 420.258 71.62C420.165 86.0867 419.931 93.6467 419.558 94.3C419.465 94.58 419.325 94.72 419.138 94.72C419.138 94.72 419.091 94.6733 418.998 94.58C418.998 94.4867 418.998 94.3933 418.998 94.3L419.138 92.76L419.278 90.94C419.278 90.1 419.185 89.4 418.998 88.84C418.811 88.4667 418.671 88.28 418.578 88.28C418.485 88.28 418.438 89.12 418.438 90.8C418.345 92.48 418.158 93.9733 417.878 95.28C417.598 96.4933 417.038 97.8933 416.198 99.48C415.731 100.507 415.358 101.113 415.078 101.3C414.891 101.393 414.611 101.253 414.238 100.88C413.771 100.413 413.258 100.18 412.698 100.18C412.045 100.18 411.578 100.507 411.298 101.16C411.205 101.533 411.111 101.767 411.018 101.86C410.925 101.953 410.785 101.813 410.598 101.44C410.411 100.88 410.131 100.6 409.758 100.6C409.478 100.6 409.245 100.88 409.058 101.44C409.058 101.72 409.011 101.86 408.918 101.86C408.825 101.86 408.778 101.767 408.778 101.58C408.778 101.207 408.405 100.74 407.658 100.18C407.005 99.8067 406.678 99.2933 406.678 98.64C406.678 98.2667 406.631 98.08 406.538 98.08C406.445 98.08 406.165 98.36 405.698 98.92C405.138 99.6667 404.718 100.04 404.438 100.04C404.251 100.04 403.878 99.5267 403.318 98.5C401.638 95.42 400.425 84.36 399.678 65.32C399.585 58.9733 399.305 55.8 398.838 55.8C398.465 55.8 396.505 56.3133 392.958 57.34L387.638 58.88L386.518 57.62C385.585 56.78 385.398 56.3133 385.958 56.22C386.331 56.0333 385.818 55.94 384.418 55.94H383.998C383.065 55.94 382.271 55.7533 381.618 55.38C381.058 55.0067 380.778 54.5867 380.778 54.12C380.778 53.6533 380.498 53.2333 379.938 52.86C379.378 52.3 378.865 51.1333 378.398 49.36C378.118 48.4267 377.885 47.6333 377.698 46.98C377.418 46.2333 377.231 45.6267 377.138 45.16C376.858 44.4133 376.718 43.2467 376.718 41.66L376.858 39.56L381.478 37.74L385.258 36.34C389.271 34.8467 391.465 34.0067 391.838 33.82L397.718 31.72L397.578 25.84C397.485 22.1067 397.625 18.2333 397.998 14.22C398.371 10.1133 398.791 8.06 399.258 8.06C399.725 8.06 400.051 8.34 400.238 8.9C400.238 9.17999 400.285 9.31999 400.378 9.31999C400.471 9.22666 400.518 8.99333 400.518 8.61999C400.518 8.05999 400.658 7.73333 400.938 7.64C401.311 7.45333 401.545 7.63999 401.638 8.2C401.638 8.57333 401.871 8.2 402.338 7.08C402.805 6.05333 403.458 5.30667 404.298 4.84C404.951 4.46667 406.911 4.28 410.178 4.28C414.285 4.28 416.945 4.51333 418.158 4.98C418.905 5.35333 419.511 5.54 419.978 5.54C420.258 5.54 420.398 8.48 420.398 14.36C420.398 20.3333 420.538 23.32 420.818 23.32C421.005 23.32 422.825 22.7133 426.278 21.5C429.731 20.2867 432.018 19.68 433.138 19.68L434.958 19.82L432.998 20.52C432.438 20.6133 431.645 20.94 430.618 21.5C430.525 21.78 430.758 21.8267 431.318 21.64C432.345 21.1733 433.371 20.94 434.398 20.94C435.238 20.94 436.218 21.1267 437.338 21.5C438.645 21.8733 439.438 22.2 439.718 22.48C439.998 22.6667 440.045 23.0867 439.858 23.74V24.3C439.858 24.9533 440.045 25.4667 440.418 25.84C440.978 26.2133 441.258 26.7267 441.258 27.38C441.258 27.94 441.398 28.1733 441.678 28.08C441.865 27.8933 441.958 28.0333 441.958 28.5C441.958 29.1533 441.678 29.9467 441.118 30.88C440.651 31.3467 440.745 31.7667 441.398 32.14ZM401.918 6.8C401.825 6.89333 401.731 6.89333 401.638 6.8C401.638 6.70666 401.638 6.51999 401.638 6.24C401.638 5.58666 401.731 5.44666 401.918 5.81999C402.105 6.28666 402.105 6.61333 401.918 6.8ZM401.078 14.64C401.358 13.24 401.498 12.4 401.498 12.12C401.498 11.56 401.451 11.28 401.358 11.28L401.078 12.4C400.798 13.0533 400.658 13.8933 400.658 14.92C400.658 15.6667 400.798 15.5733 401.078 14.64ZM392.398 54.54H392.258L391.138 54.68C389.738 54.8667 388.805 55.1 388.338 55.38L388.198 55.52L388.478 55.66C388.945 55.66 390.065 55.3333 391.838 54.68L392.398 54.54ZM500.31 90.52C500.496 92.9467 500.45 94.16 500.17 94.16C499.983 94.16 499.843 93.6467 499.75 92.62C499.656 91.78 499.516 91.08 499.33 90.52C499.143 89.96 499.003 89.6333 498.91 89.54C498.816 89.4467 498.816 89.7267 498.91 90.38L499.05 92.9C499.05 95.42 498.863 97.7067 498.49 99.76C498.116 101.813 497.743 102.513 497.37 101.86C497.276 101.673 497.043 101.487 496.67 101.3C496.39 101.113 496.063 101.02 495.69 101.02C495.223 101.02 494.896 101.067 494.71 101.16C494.523 101.253 494.383 101.487 494.29 101.86C494.196 102.327 494.056 102.56 493.87 102.56C493.776 102.653 493.543 102.607 493.17 102.42C492.796 102.327 492.516 102.28 492.33 102.28C492.236 102.373 492.236 102.653 492.33 103.12C492.33 103.68 492.236 103.773 492.05 103.4C491.676 102.84 491.21 102.56 490.65 102.56C489.996 102.373 489.483 101.907 489.11 101.16L488.55 99.9L487.85 101.58C487.57 102.327 487.383 102.747 487.29 102.84C487.196 102.933 486.963 102.793 486.59 102.42L485.05 101.02C484.396 100.367 483.65 96.82 482.81 90.38C481.97 83.8467 481.41 79.4133 481.13 77.08H465.73L465.31 85.34C465.123 90.5667 464.843 93.9733 464.47 95.56L464.05 97.66V95.28C464.236 92.3867 464.19 90.94 463.91 90.94C463.723 90.94 463.583 91.6867 463.49 93.18C463.396 94.58 463.07 96.1667 462.51 97.94C461.95 99.62 461.343 100.973 460.69 102C460.036 102.933 459.57 103.213 459.29 102.84C458.916 102.187 458.356 101.86 457.61 101.86C457.05 101.86 456.536 102.233 456.07 102.98C455.883 103.353 455.696 103.587 455.51 103.68C455.416 103.773 455.37 103.633 455.37 103.26C455.37 102.7 455.09 102.467 454.53 102.56H454.11C453.176 102.56 452.29 101.767 451.45 100.18C451.17 99.7133 450.983 99.48 450.89 99.48C450.89 99.48 450.656 99.8533 450.19 100.6C449.91 101.253 449.63 101.58 449.35 101.58C449.07 101.58 448.65 100.973 448.09 99.76C447.25 97.8933 446.55 93.46 445.99 86.46C445.523 79.46 445.243 71.0133 445.15 61.12C445.15 54.4 444.963 47.3067 444.59 39.84C444.216 33.7733 444.03 28.5 444.03 24.02C444.03 19.9133 444.216 16.4133 444.59 13.52C445.056 10.0667 445.523 8.34 445.99 8.34C446.456 8.34 446.69 8.66666 446.69 9.31999C446.783 9.78666 446.97 9.64667 447.25 8.9C447.623 7.96666 447.95 7.78 448.23 8.34C448.416 8.62 448.556 8.71333 448.65 8.61999C448.836 8.43333 448.976 8.15333 449.07 7.77999C449.256 6.84666 449.583 6.19333 450.05 5.81999C450.516 5.44666 451.356 5.21333 452.57 5.12C454.25 4.93333 461.483 4.74666 474.27 4.55999L488.13 4.28C492.05 4.28 494.15 4.51333 494.43 4.98C494.99 5.54 495.736 5.91333 496.67 6.09999L498.21 6.38L497.93 14.36C497.65 18.84 497.51 27.8933 497.51 41.52C497.51 50.3867 498.21 63.36 499.61 80.44C500.076 85.8533 500.31 89.2133 500.31 90.52ZM448.51 7.21999C448.323 7.40666 448.23 7.17333 448.23 6.51999C448.23 6.33333 448.276 6.19333 448.37 6.09999C448.463 6.00666 448.556 6.05333 448.65 6.24C448.836 6.8 448.79 7.12666 448.51 7.21999ZM469.23 23.74C469.136 23.74 469.043 23.7867 468.95 23.88C468.856 23.88 468.81 23.88 468.81 23.88C468.903 23.88 469.136 23.9267 469.51 24.02C469.976 24.02 470.536 24.02 471.19 24.02C472.03 24.02 472.683 24.02 473.15 24.02C473.616 23.9267 473.57 23.8333 473.01 23.74C472.73 23.6467 472.123 23.6 471.19 23.6C470.256 23.6 469.603 23.6467 469.23 23.74ZM471.33 54.82L476.65 54.54L476.51 53.28C476.323 51.9733 476.136 49.36 475.95 45.44C475.856 42.36 475.576 38.2067 475.11 32.98L474.55 26.68H470.77C468.343 26.68 467.036 26.82 466.85 27.1C466.663 27.2867 466.476 32 466.29 41.24L465.87 54.96L471.33 54.82ZM466.01 73.58C465.823 73.6733 465.776 73.7667 465.87 73.86C465.963 73.9533 466.103 74 466.29 74C466.943 74 467.176 73.9067 466.99 73.72C466.616 73.5333 466.29 73.4867 466.01 73.58ZM473.71 73.86C473.99 73.86 474.176 73.86 474.27 73.86C474.456 73.7667 474.456 73.6733 474.27 73.58H473.01C472.823 73.6733 472.823 73.7667 473.01 73.86C473.196 73.86 473.43 73.86 473.71 73.86ZM477.77 74.42C478.33 74.42 478.75 74.42 479.03 74.42C479.31 74.3267 479.263 74.2333 478.89 74.14C478.703 74.0467 478.33 74 477.77 74C477.21 74 476.836 74.0467 476.65 74.14L476.37 74.28C476.37 74.3733 476.836 74.42 477.77 74.42ZM466.85 75.4C467.223 75.4 467.503 75.4 467.69 75.4C467.876 75.3067 467.876 75.2133 467.69 75.12C467.316 74.9333 466.803 74.9333 466.15 75.12C465.963 75.2133 465.916 75.3067 466.01 75.4C466.196 75.4 466.476 75.4 466.85 75.4ZM574.176 92.9C574.456 93.74 574.596 94.3467 574.596 94.72C574.596 95.1867 574.223 95.7933 573.476 96.54C573.103 96.9133 572.776 97.3333 572.496 97.8C572.309 98.1733 572.263 98.4533 572.356 98.64C572.449 98.8267 572.403 99.0133 572.216 99.2C572.123 99.3867 571.983 99.5267 571.796 99.62C571.609 99.7133 571.423 99.8067 571.236 99.9C571.143 99.9933 571.143 100.087 571.236 100.18C571.516 100.273 571.096 100.693 569.976 101.44C568.949 102 568.436 102.56 568.436 103.12V103.26C568.436 103.727 568.016 104.147 567.176 104.52C566.056 104.987 563.956 104.52 560.876 103.12C557.796 101.72 553.316 99.1533 547.436 95.42C544.916 93.9267 542.023 92.34 538.756 90.66C535.956 89.26 532.923 87.2533 529.656 84.64L524.616 80.58L524.336 89.4C524.243 92.2 524.103 94.4867 523.916 96.26C523.823 97.94 523.683 98.78 523.496 98.78C523.309 98.78 523.216 97.52 523.216 95V90.94L522.796 94.72C522.609 96.5867 522.189 98.4533 521.536 100.32C520.976 102.187 520.416 103.54 519.856 104.38C519.296 105.313 518.876 105.407 518.596 104.66C518.503 104.193 518.083 103.96 517.336 103.96C516.403 103.96 515.889 104.287 515.796 104.94C515.703 105.407 515.609 105.64 515.516 105.64C515.423 105.733 515.143 105.547 514.676 105.08C514.303 104.707 514.023 104.52 513.836 104.52C513.743 104.613 513.649 104.94 513.556 105.5C513.463 106.34 513.323 106.48 513.136 105.92C513.136 105.267 512.809 104.753 512.156 104.38C511.596 103.82 511.176 103.26 510.896 102.7C510.709 102.233 510.569 102 510.476 102C510.383 102 510.149 102.28 509.776 102.84C509.216 103.587 508.843 103.96 508.656 103.96C508.283 103.96 507.816 103.26 507.256 101.86C506.696 100.46 506.276 98.9667 505.996 97.38C505.623 94.6733 505.156 89.0733 504.596 80.58C504.129 71.9933 503.756 63.3133 503.476 54.54C503.196 44.2733 502.823 37.32 502.356 33.68C502.169 31.6267 502.076 28.8267 502.076 25.28C502.076 17.2533 502.309 11.98 502.776 9.46C502.963 8.71333 503.289 8.19999 503.756 7.91999C504.223 7.64 504.456 7.82666 504.456 8.47999C504.549 8.66666 504.736 8.43333 505.016 7.77999C505.203 7.31333 505.343 7.03333 505.436 6.94C505.623 6.84667 505.809 7.03333 505.996 7.5C506.089 7.59333 506.136 7.73333 506.136 7.91999C506.136 8.01333 506.183 8.06 506.276 8.06C506.463 8.06 506.696 7.59333 506.976 6.65999C507.256 5.81999 507.536 5.25999 507.816 4.98C508.189 4.7 508.936 4.46666 510.056 4.28C511.363 4.09333 512.669 3.99999 513.976 3.99999C515.843 3.99999 517.663 4.09333 519.436 4.28C521.303 4.46666 522.563 4.74666 523.216 5.12L525.036 5.95999L524.336 49.08L525.456 48.8C527.323 48.0533 529.563 47.0267 532.176 45.72C538.336 42.8267 542.723 39.28 545.336 35.08C547.949 30.7867 549.303 25.0933 549.396 18C549.396 16.2267 549.443 14.64 549.536 13.24C549.723 11.84 549.863 10.9533 549.956 10.58C550.143 10.58 550.236 11.1867 550.236 12.4C550.236 13.0533 550.283 13.66 550.376 14.22C550.469 14.78 550.609 15.1533 550.796 15.34L550.936 15.62C551.029 15.62 551.076 15.48 551.076 15.2C551.076 14.7333 551.029 14.36 550.936 14.08V13.38C550.936 12.4467 551.123 11.14 551.496 9.46C551.869 8.05999 552.383 6.79999 553.036 5.68C553.783 4.55999 554.249 4.23333 554.436 4.69999C554.623 4.97999 555.089 5.21333 555.836 5.39999H556.256C556.629 5.39999 556.863 5.30666 556.956 5.12C557.143 4.93333 557.283 4.65333 557.376 4.28C557.656 3.44 557.796 3.3 557.796 3.86C557.889 4.41999 558.169 4.74666 558.636 4.84C559.196 4.84 559.476 4.56 559.476 3.99999C559.476 3.90666 559.523 3.86 559.616 3.86C559.803 3.86 560.316 4.28 561.156 5.12C561.996 5.96 562.509 6.42666 562.696 6.51999C562.976 6.51999 563.256 6.28666 563.536 5.81999C563.816 5.26 564.143 4.98 564.516 4.98C565.543 4.98 566.523 6.84666 567.456 10.58C568.483 14.3133 568.996 18.42 568.996 22.9C568.996 30.6467 567.129 37.9267 563.396 44.74C559.663 51.46 554.156 57.5267 546.876 62.94L542.536 66.02L543.936 67L552.476 73.44C555.089 75.4 559.196 78.34 564.796 82.26C571.049 86.5533 574.176 89.0733 574.176 89.82C574.176 90.0067 574.036 90.0533 573.756 89.96C573.569 89.8667 573.336 89.68 573.056 89.4C572.496 88.9333 571.983 88.7 571.516 88.7C571.423 88.7 571.376 88.7467 571.376 88.84C571.376 88.9333 571.656 89.2133 572.216 89.68C573.056 90.3333 573.709 91.4067 574.176 92.9ZM505.856 11C506.043 10.5333 506.043 10.1133 505.856 9.73999C505.763 9.55333 505.669 9.55333 505.576 9.73999C505.576 9.83333 505.576 10.02 505.576 10.3C505.576 10.58 505.576 10.8133 505.576 11C505.669 11.1867 505.763 11.1867 505.856 11ZM505.296 14.5C505.483 14.1267 505.483 13.6133 505.296 12.96C505.203 12.68 505.156 12.9133 505.156 13.66C505.156 14.5 505.203 14.78 505.296 14.5ZM532.316 83.1C532.503 83.1 532.456 82.96 532.176 82.68C530.869 81.56 529.563 80.4867 528.256 79.46C526.949 78.4333 526.296 78.0133 526.296 78.2C526.296 78.3867 527.229 79.2733 529.096 80.86C531.056 82.3533 532.129 83.1 532.316 83.1ZM599.555 78.06L599.415 80.58L604.735 81L624.475 81.84C636.049 82.2133 641.835 82.7733 641.835 83.52C641.835 83.52 641.742 83.5667 641.555 83.66C641.462 83.66 641.275 83.66 640.995 83.66L639.175 83.52C637.775 83.52 637.309 83.5667 637.775 83.66C640.015 84.1267 642.022 84.92 643.795 86.04C645.569 87.0667 646.129 87.9067 645.475 88.56C645.102 88.9333 644.915 89.4 644.915 89.96C644.915 90.7067 645.195 91.22 645.755 91.5C645.942 91.5933 646.082 91.7333 646.175 91.92C646.269 92.0133 646.222 92.06 646.035 92.06C645.569 92.06 645.335 92.2933 645.335 92.76C645.335 93.32 645.569 93.6 646.035 93.6C646.222 93.6 646.269 93.6933 646.175 93.88C646.082 93.9733 645.942 94.0667 645.755 94.16C645.195 94.44 644.915 94.86 644.915 95.42C644.915 95.8867 644.635 96.12 644.075 96.12C643.609 96.12 643.375 96.2133 643.375 96.4C643.375 96.5867 643.609 97.0067 644.075 97.66C644.449 98.0333 644.635 98.3133 644.635 98.5C644.635 99.2467 643.889 99.8533 642.395 100.32C640.995 100.787 638.335 101.16 634.415 101.44C630.589 101.72 624.849 102 617.195 102.28C610.382 102.467 604.922 102.653 600.815 102.84C596.802 103.027 594.282 103.213 593.255 103.4C592.322 103.68 591.529 104.193 590.875 104.94C590.409 105.5 590.035 105.827 589.755 105.92C589.569 106.107 589.475 106.013 589.475 105.64C589.382 105.173 589.055 104.753 588.495 104.38C587.935 104.007 587.469 103.96 587.095 104.24C586.722 104.427 586.442 104.753 586.255 105.22C586.162 105.5 586.069 105.64 585.975 105.64C585.882 105.64 585.835 105.5 585.835 105.22C585.835 104.567 585.602 104.24 585.135 104.24C584.669 104.24 584.342 104.567 584.155 105.22C584.155 105.5 584.109 105.593 584.015 105.5C583.922 105.5 583.875 105.36 583.875 105.08C583.782 104.427 583.409 103.773 582.755 103.12C582.102 102.56 581.402 102.233 580.655 102.14C579.909 102.14 579.255 102.047 578.695 101.86C578.229 101.673 577.902 101.347 577.715 100.88C577.622 100.413 577.809 100.18 578.275 100.18C578.462 100.18 578.509 100.133 578.415 100.04C578.415 99.8533 578.275 99.7133 577.995 99.62C577.342 99.2467 577.249 98.92 577.715 98.64L577.855 98.36C577.855 98.1733 577.389 97.94 576.455 97.66C575.429 97.38 574.729 96.8667 574.355 96.12C574.075 95.28 573.935 93.6467 573.935 91.22C573.935 86.6467 574.262 83.66 574.915 82.26C575.662 81.14 575.942 80.44 575.755 80.16C575.755 79.9733 576.315 79.88 577.435 79.88H579.115L579.395 74.84L579.675 67.7V65.6H577.575L574.075 65.18L573.655 64.9C573.655 64.8067 574.309 64.76 575.615 64.76C577.482 64.5733 578.462 64.4333 578.555 64.34C578.742 64.1533 578.182 64.06 576.875 64.06C575.942 64.06 574.729 63.78 573.235 63.22C571.835 62.66 570.669 62.0533 569.735 61.4C568.802 60.7467 568.569 60.28 569.035 60C569.315 59.72 569.549 59.2533 569.735 58.6C569.922 58.1333 569.969 57.8067 569.875 57.62C569.782 57.4333 569.549 57.2467 569.175 57.06C568.709 56.9667 568.429 56.8733 568.335 56.78C568.335 56.6867 568.522 56.4533 568.895 56.08C569.269 55.6133 569.409 55.3333 569.315 55.24C569.315 55.1467 569.129 55.0533 568.755 54.96C568.382 54.7733 568.195 54.6333 568.195 54.54C568.195 54.4467 568.382 54.3533 568.755 54.26C568.942 54.1667 569.129 54.0267 569.315 53.84C569.502 53.6533 569.595 53.42 569.595 53.14C569.595 52.6733 569.829 52.44 570.295 52.44C570.762 52.44 570.995 52.3 570.995 52.02C570.995 51.6467 570.762 51.2733 570.295 50.9C570.015 50.4333 569.875 50.1533 569.875 50.06C569.875 49.8733 570.109 49.5467 570.575 49.08C571.509 48.3333 573.095 47.7267 575.335 47.26L578.975 46.42L579.115 44.32C579.302 43.0133 579.115 40.7733 578.555 37.6C577.995 34.24 577.715 32.14 577.715 31.3C577.715 28.0333 577.202 26.4 576.175 26.4C575.615 26.4 575.289 26.1667 575.195 25.7C575.102 25.14 575.289 24.86 575.755 24.86C575.942 24.86 575.942 24.8133 575.755 24.72C575.662 24.5333 575.475 24.3933 575.195 24.3C574.729 24.1133 574.449 23.9733 574.355 23.88C574.262 23.6933 574.402 23.5533 574.775 23.46C575.055 23.2733 575.195 23.18 575.195 23.18C575.195 22.9933 574.729 22.76 573.795 22.48C572.862 22.2 572.255 21.92 571.975 21.64C571.695 21.2667 571.415 20.52 571.135 19.4C570.949 18.7467 570.855 17.4867 570.855 15.62C570.855 11.6067 571.229 8.62 571.975 6.65999L572.815 4.55999L599.135 4.69999C618.829 4.69999 630.075 4.60666 632.875 4.42C637.635 4.23333 639.922 4.18666 639.735 4.28C639.082 4.46666 638.149 4.65333 636.935 4.84C636.095 4.93333 635.675 5.07333 635.675 5.25999L638.475 5.54C640.342 5.72666 642.069 6.19333 643.655 6.94C645.335 7.59333 645.802 8.05999 645.055 8.34C644.682 8.52666 644.495 8.85333 644.495 9.31999C644.495 9.59999 644.682 10.2067 645.055 11.14C645.429 11.7 645.615 12.2133 645.615 12.68C645.615 13.1467 645.802 13.38 646.175 13.38H646.315C646.409 13.38 646.455 13.4267 646.455 13.52C646.455 13.8 646.315 14.22 646.035 14.78C645.382 15.7133 644.962 16.18 644.775 16.18C644.495 16.18 644.355 16.32 644.355 16.6C644.355 17.0667 644.729 17.44 645.475 17.72C645.942 17.8133 646.175 17.9533 646.175 18.14C646.175 18.3267 645.709 18.8867 644.775 19.82L643.095 21.64V41.38C643.095 50.2467 643.049 55.8933 642.955 58.32C642.862 60.6533 642.582 62.24 642.115 63.08C641.555 64.3867 640.809 65.1333 639.875 65.32C638.942 65.5067 632.129 65.6 619.435 65.6L600.395 65.46L599.975 70.5L599.555 78.06ZM600.535 26.82C600.442 26.9133 600.395 28.0333 600.395 30.18C600.395 33.1667 600.489 36.34 600.675 39.7C600.862 43.06 601.049 44.74 601.235 44.74L608.375 44.18C613.135 43.8067 616.309 43.48 617.895 43.2L620.835 42.64L621.115 34.1V25.42C620.929 25.2333 617.475 25.3733 610.755 25.84C604.035 26.3067 600.629 26.6333 600.535 26.82ZM622.515 25.42C622.422 25.42 622.375 25.7 622.375 26.26C622.375 26.82 622.422 27.3333 622.515 27.8C622.609 28.1733 622.702 28.4067 622.795 28.5C622.889 28.5 622.935 27.9867 622.935 26.96C622.935 25.9333 622.795 25.42 622.515 25.42ZM624.335 25.84C624.242 25.6533 624.149 25.6533 624.055 25.84C624.055 25.9333 624.055 26.12 624.055 26.4C624.055 26.68 624.055 26.9133 624.055 27.1C624.149 27.2867 624.242 27.2867 624.335 27.1C624.522 26.6333 624.522 26.2133 624.335 25.84ZM623.775 31.86C623.775 31.9533 623.729 32.14 623.635 32.42C623.635 32.7 623.635 33.0733 623.635 33.54C623.635 34.1933 623.635 34.7067 623.635 35.08C623.729 35.36 623.822 35.3133 623.915 34.94V32.14L623.775 31.86ZM623.775 38.44C623.775 38.5333 623.729 38.72 623.635 39C623.635 39.28 623.635 39.6533 623.635 40.12C623.635 40.7733 623.635 41.2867 623.635 41.66C623.729 41.94 623.822 41.8933 623.915 41.52V38.72L623.775 38.44Z" fill="black" fill-opacity="0.2"/>
</svg>
