<svg width="30" height="30" viewBox="0 0 30 30" fill="none" xmlns="http://www.w3.org/2000/svg">
<path d="M19.125 23.25C17.8762 23.25 16.875 24.2512 16.875 25.5C16.875 26.0967 17.1121 26.669 17.534 27.091C17.956 27.5129 18.5283 27.75 19.125 27.75C19.7217 27.75 20.294 27.5129 20.716 27.091C21.1379 26.669 21.375 26.0967 21.375 25.5C21.375 24.9033 21.1379 24.331 20.716 23.909C20.294 23.4871 19.7217 23.25 19.125 23.25ZM1.125 5.25V7.5H3.375L7.425 16.0387L5.895 18.795C5.72625 19.11 5.625 19.4812 5.625 19.875C5.625 20.4717 5.86205 21.044 6.28401 21.466C6.70597 21.8879 7.27826 22.125 7.875 22.125H21.375V19.875H8.3475C8.27291 19.875 8.20137 19.8454 8.14863 19.7926C8.09588 19.7399 8.06625 19.6683 8.06625 19.5938C8.06625 19.5375 8.0775 19.4925 8.1 19.4587L9.1125 17.625H17.4937C18.3375 17.625 19.08 17.1525 19.4625 16.4663L23.49 9.1875C23.5687 9.0075 23.625 8.81625 23.625 8.625C23.625 8.32663 23.5065 8.04048 23.2955 7.8295C23.0845 7.61853 22.7984 7.5 22.5 7.5H5.86125L4.80375 5.25M7.875 23.25C6.62625 23.25 5.625 24.2512 5.625 25.5C5.625 26.0967 5.86205 26.669 6.28401 27.091C6.70597 27.5129 7.27826 27.75 7.875 27.75C8.47174 27.75 9.04403 27.5129 9.46599 27.091C9.88795 26.669 10.125 26.0967 10.125 25.5C10.125 24.9033 9.88795 24.331 9.46599 23.909C9.04403 23.4871 8.47174 23.25 7.875 23.25Z" fill="#F4B13E"/>
<circle cx="24" cy="6" r="6" fill="#0DA050"/>
<path d="M24.5638 5.088C24.8951 5.186 25.1634 5.35867 25.3688 5.606C25.5788 5.84867 25.6838 6.14267 25.6838 6.488C25.6838 6.992 25.5134 7.38633 25.1728 7.671C24.8368 7.95567 24.4238 8.098 23.9338 8.098C23.5511 8.098 23.2081 8.01167 22.9048 7.839C22.6061 7.66167 22.3891 7.40267 22.2538 7.062L23.0798 6.586C23.2011 6.964 23.4858 7.153 23.9338 7.153C24.1811 7.153 24.3724 7.09467 24.5078 6.978C24.6478 6.85667 24.7178 6.69333 24.7178 6.488C24.7178 6.28733 24.6478 6.12633 24.5078 6.005C24.3724 5.88367 24.1811 5.823 23.9338 5.823H23.7238L23.3528 5.263L24.3188 4.003H22.4008V3.1H25.4808V3.898L24.5638 5.088Z" fill="white"/>
</svg>
