<svg width="101" height="101" viewBox="0 0 101 101" fill="none" xmlns="http://www.w3.org/2000/svg">
<g filter="url(#filter0_d_2324_28)">
<circle cx="50.5" cy="40.5" r="40.5" fill="#361802"/>
</g>
<g clip-path="url(#clip0_2324_28)">
<path d="M58.0074 49.5471C63.0983 46.9786 66.5933 41.7021 66.5933 35.6062C66.5933 33.859 66.3024 32.1815 65.7745 30.6139C66.0428 30.7046 66.271 30.7883 66.4505 30.8476C66.7153 30.9452 66.8599 31.0063 66.8599 31.0063C66.8599 31.0063 67.0063 31.0655 67.2641 31.1667C67.3948 31.2155 67.5359 31.294 67.7049 31.3707C67.7885 31.4108 67.8774 31.4526 67.9715 31.498C68.0673 31.5398 68.1631 31.5904 68.2555 31.6479C69.0465 32.0647 69.9437 32.7447 70.4891 33.5695C71.0675 34.3995 71.3532 35.369 71.416 36.0613C71.4508 36.41 71.4421 36.6907 71.4299 36.8843C71.4107 37.0744 71.3985 37.1825 71.3985 37.1825L74.0468 37.0465L76.695 36.9104C76.695 36.9104 76.6619 36.6785 76.5835 36.281C76.4999 35.8851 76.357 35.3289 76.1114 34.6994C75.6305 33.4387 74.6723 31.9165 73.3481 30.8022C73.0206 30.5215 72.6739 30.2652 72.3167 30.0385C71.9595 29.8205 71.5989 29.6409 71.2574 29.4579C70.9072 29.3009 70.564 29.1736 70.2451 29.0463C69.9228 28.9365 69.6162 28.858 69.3374 28.7761C69.198 28.7325 69.0639 28.7011 68.9367 28.6784C68.8095 28.6523 68.691 28.6278 68.5778 28.6052C68.353 28.5633 68.1562 28.5145 67.9976 28.4971C67.6805 28.4535 67.4993 28.4291 67.4993 28.4291C67.4993 28.4291 67.3164 28.4012 67.0045 28.3663C66.6944 28.3436 66.2449 28.2878 65.7239 28.2634C65.4469 28.2442 65.1473 28.2285 64.8336 28.2146C64.9068 28.1518 64.9765 28.0925 65.0445 28.0367C65.318 27.7996 65.5497 27.6287 65.7083 27.4979C65.8703 27.3741 65.9626 27.3114 65.9626 27.3114C65.9626 27.3114 66.055 27.2451 66.2153 27.1283C66.2954 27.0672 66.3965 27.0114 66.5097 26.9382C66.5655 26.9033 66.6264 26.865 66.6892 26.8249C66.7519 26.783 66.8181 26.7446 66.8895 26.7098C67.4471 26.3907 68.2067 26.1065 68.9175 26.0942C69.6441 26.0629 70.3427 26.2634 70.787 26.4918C71.0117 26.6052 71.179 26.7185 71.2923 26.8004C71.4003 26.8859 71.4613 26.9347 71.4613 26.9347L72.4003 25.273L73.3394 23.6112C73.3394 23.6112 73.1861 23.5415 72.9143 23.4368C72.6425 23.3357 72.2488 23.2067 71.7731 23.1143C70.8218 22.9207 69.5291 22.9155 68.3426 23.2904C68.0464 23.381 67.7572 23.4944 67.4819 23.6217C67.2118 23.7542 66.9644 23.9042 66.7223 24.0419C66.4923 24.1936 66.2832 24.354 66.0829 24.4988C65.8912 24.6522 65.7257 24.8091 65.5689 24.9469C65.4887 25.0149 65.4173 25.0846 65.3546 25.1526C65.2901 25.2189 65.2291 25.2834 65.1716 25.3427C65.0601 25.463 64.9539 25.5642 64.8824 25.6531C64.7343 25.8292 64.649 25.9303 64.649 25.9303C64.649 25.9303 64.5619 26.0297 64.419 26.2076C64.297 26.3715 64.1141 26.5982 63.9189 26.8685C61.1174 22.7237 56.3767 20 51 20C42.3879 20 35.4067 26.987 35.4067 35.6062C35.4067 41.7021 38.9017 46.9786 43.9926 49.5471C41.2729 50.262 38.717 51.3797 36.3945 52.8374L30.9412 46.3892L28.4341 48.5131L33.7114 54.7538C28.8087 58.7155 25.291 64.3232 24 70.7383C31.1834 77.1203 40.6387 81 51 81C61.3613 81 70.8166 77.122 78 70.7383C75.9232 60.4243 68.0952 52.1958 58.0074 49.5471ZM38.3163 33.2068H63.6837C62.6697 36.4763 57.3785 38.9698 51 38.9698C44.6215 38.9698 39.3303 36.4763 38.3163 33.2068Z" fill="#F4B13E"/>
<path d="M56.7564 36.7972C58.0857 36.7972 59.1956 35.7771 59.4691 34.4153H54.0454C54.3172 35.7771 55.427 36.7972 56.7581 36.7972H56.7564Z" fill="#F4B13E"/>
<path d="M45.2417 36.7972C46.5711 36.7972 47.6809 35.7771 47.9545 34.4153H42.5308C42.8026 35.7771 43.9124 36.7972 45.2435 36.7972H45.2417Z" fill="#F4B13E"/>
<path d="M29.7286 44.954L27.2207 47.0789L28.1809 48.2141L30.6889 46.0892L29.7286 44.954Z" fill="#F4B13E"/>
<path d="M28.5157 43.5211L26.0078 45.646L26.9681 46.7812L29.476 44.6564L28.5157 43.5211Z" fill="#F4B13E"/>
<path d="M25.7526 45.3464L28.2598 43.2226L26.8956 41.6097C26.3102 40.9174 25.2735 40.8302 24.5801 41.4161C23.8884 42.002 23.8013 43.0395 24.3884 43.7335L25.7526 45.3464Z" fill="#F4B13E"/>
</g>
<defs>
<filter id="filter0_d_2324_28" x="0" y="0" width="101" height="101" filterUnits="userSpaceOnUse" color-interpolation-filters="sRGB">
<feFlood flood-opacity="0" result="BackgroundImageFix"/>
<feColorMatrix in="SourceAlpha" type="matrix" values="0 0 0 0 0 0 0 0 0 0 0 0 0 0 0 0 0 0 127 0" result="hardAlpha"/>
<feOffset dy="10"/>
<feGaussianBlur stdDeviation="5"/>
<feComposite in2="hardAlpha" operator="out"/>
<feColorMatrix type="matrix" values="0 0 0 0 0.635294 0 0 0 0 0.333333 0 0 0 0 0.2 0 0 0 0.25 0"/>
<feBlend mode="normal" in2="BackgroundImageFix" result="effect1_dropShadow_2324_28"/>
<feBlend mode="normal" in="SourceGraphic" in2="effect1_dropShadow_2324_28" result="shape"/>
</filter>
<clipPath id="clip0_2324_28">
<rect width="54" height="61" fill="white" transform="translate(24 20)"/>
</clipPath>
</defs>
</svg>
