<svg width="28" height="28" viewBox="0 0 28 28" fill="none" xmlns="http://www.w3.org/2000/svg">
<g clip-path="url(#clip0_2355_1242)">
<path fill-rule="evenodd" clip-rule="evenodd" d="M15.237 18.7367C14.9089 19.0644 14.4641 19.2485 14.0004 19.2485C13.5366 19.2485 13.0918 19.0644 12.7637 18.7367L6.16271 12.138C5.83457 11.8097 5.65028 11.3645 5.65039 10.9004C5.6505 10.4362 5.83499 9.99109 6.16329 9.66295C6.49158 9.33481 6.93678 9.15053 7.40095 9.15063C7.86512 9.15074 8.31023 9.33524 8.63837 9.66353L14.0004 15.0255L19.3624 9.66353C19.6923 9.3446 20.1342 9.168 20.5931 9.17177C21.0519 9.17554 21.491 9.35937 21.8156 9.68369C22.1402 10.008 22.3244 10.4468 22.3286 10.9057C22.3328 11.3645 22.1567 11.8067 21.838 12.1369L15.2382 18.7379L15.237 18.7367Z" fill="#F4B13E"/>
</g>
<defs>
<clipPath id="clip0_2355_1242">
<rect width="28" height="28" fill="white"/>
</clipPath>
</defs>
</svg>
