<svg width="27" height="30" viewBox="0 0 27 30" fill="none" xmlns="http://www.w3.org/2000/svg">
<g clip-path="url(#clip0_2336_238)">
<path d="M16.725 14.5313C19.2287 13.2682 20.9475 10.6732 20.9475 7.67516C20.9475 6.81588 20.8045 5.99091 20.5448 5.21996C20.6768 5.26456 20.789 5.30572 20.8773 5.33488C21.0075 5.3829 21.0786 5.41292 21.0786 5.41292C21.0786 5.41292 21.1506 5.44207 21.2774 5.49181C21.3417 5.51582 21.4111 5.55441 21.4942 5.59214C21.5353 5.61187 21.579 5.63245 21.6253 5.65475C21.6724 5.67533 21.7196 5.7002 21.765 5.7285C22.154 5.93345 22.5953 6.2679 22.8635 6.67353C23.1479 7.08173 23.2885 7.55853 23.3193 7.89898C23.3365 8.07049 23.3322 8.20856 23.3262 8.30375C23.3168 8.39722 23.3108 8.45039 23.3108 8.45039L24.6132 8.3835L25.9156 8.31661C25.9156 8.31661 25.8993 8.20256 25.8608 8.00703C25.8196 7.81237 25.7494 7.53881 25.6285 7.22923C25.3921 6.60921 24.9208 5.86056 24.2696 5.31258C24.1085 5.17451 23.938 5.04845 23.7623 4.93697C23.5867 4.82977 23.4093 4.74145 23.2413 4.6514C23.0691 4.57422 22.9003 4.51162 22.7435 4.44902C22.585 4.39499 22.4342 4.3564 22.2971 4.3161C22.2285 4.29466 22.1626 4.27922 22.1 4.26807C22.0375 4.25521 21.9792 4.2432 21.9235 4.23206C21.813 4.21147 21.7161 4.18746 21.6382 4.17889C21.4822 4.15745 21.3931 4.14544 21.3931 4.14544C21.3931 4.14544 21.3031 4.13172 21.1498 4.11457C20.9972 4.10342 20.7762 4.07598 20.52 4.06397C20.3837 4.05454 20.2364 4.04682 20.0821 4.03996C20.1181 4.00909 20.1524 3.97993 20.1858 3.95249C20.3203 3.83586 20.4343 3.75182 20.5123 3.68751C20.5919 3.62662 20.6374 3.59575 20.6374 3.59575C20.6374 3.59575 20.6828 3.56316 20.7616 3.5057C20.801 3.47569 20.8507 3.44825 20.9064 3.41223C20.9338 3.39508 20.9638 3.37621 20.9947 3.35649C21.0255 3.33591 21.0581 3.31704 21.0932 3.29989C21.3674 3.14296 21.741 3.00317 22.0906 2.99717C22.4479 2.98173 22.7915 3.08035 23.01 3.19269C23.1205 3.24844 23.2028 3.30418 23.2585 3.34448C23.3116 3.3865 23.3416 3.41051 23.3416 3.41051L23.8034 2.59326L24.2653 1.77601C24.2653 1.77601 24.1899 1.7417 24.0562 1.69025C23.9225 1.64051 23.7289 1.57705 23.495 1.5316C23.0271 1.43641 22.3913 1.43384 21.8078 1.61821C21.6622 1.66281 21.5199 1.71855 21.3845 1.78115C21.2517 1.84633 21.1301 1.92008 21.011 1.98782C20.8978 2.06243 20.795 2.14133 20.6965 2.2125C20.6022 2.28797 20.5208 2.36515 20.4437 2.4329C20.4043 2.46634 20.3692 2.50064 20.3383 2.53409C20.3066 2.56668 20.2766 2.59841 20.2484 2.62756C20.1935 2.68673 20.1412 2.73647 20.1061 2.78021C20.0333 2.86682 19.9913 2.91656 19.9913 2.91656C19.9913 2.91656 19.9485 2.96544 19.8782 3.05291C19.8182 3.13352 19.7282 3.245 19.6323 3.37793C18.2544 1.33951 15.9229 0 13.2787 0C9.04325 0 5.60983 3.43624 5.60983 7.67516C5.60983 10.6732 7.32868 13.2682 9.83242 14.5313C8.49486 14.8829 7.23786 15.4326 6.09567 16.1496L3.41371 12.9783L2.1807 14.0228L4.77611 17.092C2.36492 19.0404 0.63493 21.7983 0 24.9533C3.53281 28.0919 8.18297 30 13.2787 30C18.3744 30 23.0246 28.0928 26.5574 24.9533C25.536 19.8808 21.6862 15.834 16.725 14.5313ZM7.04078 6.49515H19.5166C19.0179 8.10308 16.4156 9.32939 13.2787 9.32939C10.1417 9.32939 7.53947 8.10308 7.04078 6.49515Z" fill="#F4B13E"/>
<path d="M16.1096 8.2609C16.7634 8.2609 17.3092 7.75923 17.4438 7.08948H14.7764C14.91 7.75923 15.4559 8.2609 16.1105 8.2609H16.1096Z" fill="#F4B13E"/>
<path d="M10.4465 8.2609C11.1003 8.2609 11.6461 7.75923 11.7807 7.08948H9.11328C9.24695 7.75923 9.79277 8.2609 10.4474 8.2609H10.4465Z" fill="#F4B13E"/>
<path d="M2.81739 12.2724L1.58398 13.3174L2.05623 13.8757L3.28964 12.8307L2.81739 12.2724Z" fill="#F4B13E"/>
<path d="M2.22071 11.5678L0.987305 12.6128L1.45956 13.1711L2.69296 12.1261L2.22071 11.5678Z" fill="#F4B13E"/>
<path d="M0.862436 12.4655L2.09545 11.4209L1.42453 10.6277C1.13663 10.2873 0.626801 10.2444 0.285773 10.5325C-0.0543989 10.8207 -0.0972417 11.3309 0.191519 11.6722L0.862436 12.4655Z" fill="#F4B13E"/>
</g>
<defs>
<clipPath id="clip0_2336_238">
<rect width="26.5574" height="30" fill="white"/>
</clipPath>
</defs>
</svg>
