<svg width="28" height="28" viewBox="0 0 28 28" fill="none" xmlns="http://www.w3.org/2000/svg">
    <g clip-path="url(#clip0_2336_254)">
    <path d="M13.9996 28C21.302 28 27.2218 22.0802 27.2218 14.7778C27.2218 7.47533 21.302 1.55554 13.9996 1.55554C6.69713 1.55554 0.777344 7.47533 0.777344 14.7778C0.777344 22.0802 6.69713 28 13.9996 28Z" fill="#F4900C"/>
    <path d="M13.9996 26.4444C21.302 26.4444 27.2218 20.5247 27.2218 13.2222C27.2218 5.91979 21.302 0 13.9996 0C6.69713 0 0.777344 5.91979 0.777344 13.2222C0.777344 20.5247 6.69713 26.4444 13.9996 26.4444Z" fill="#FFCC4D"/>
    <path d="M14.0002 24.8889C20.014 24.8889 24.8891 20.0137 24.8891 14C24.8891 7.98621 20.014 3.11108 14.0002 3.11108C7.98645 3.11108 3.11133 7.98621 3.11133 14C3.11133 20.0137 7.98645 24.8889 14.0002 24.8889Z" fill="#FFE8B6"/>
    <path d="M14.0002 24.1112C20.014 24.1112 24.8891 19.236 24.8891 13.2223C24.8891 7.2085 20.014 2.33337 14.0002 2.33337C7.98645 2.33337 3.11133 7.2085 3.11133 13.2223C3.11133 19.236 7.98645 24.1112 14.0002 24.1112Z" fill="#FFAC33"/>
    <path d="M7.42188 8.44351C7.42188 8.01962 7.83799 7.85007 7.83799 7.85007L13.9653 4.97229L20.151 7.85007C20.151 7.85007 20.5772 7.94496 20.5772 8.44662V8.94518H7.42188V8.44351Z" fill="#FFE8B6"/>
    <path d="M20.1674 9.98361C20.1674 9.52939 19.7746 9.1615 19.2908 9.1615H8.65625C8.1717 9.1615 7.83414 9.52939 7.83414 9.98361C7.83414 10.2924 7.99281 10.5584 8.24559 10.6992V11.2172H9.88981V10.8057H11.534V11.2172H13.1783V10.8057H14.8225V11.2172H16.4667V10.8057H18.1109V11.2172H19.7559V10.6782C20.0025 10.5319 20.1674 10.2761 20.1674 9.98361ZM21.4001 18.6667C21.4001 18.8303 21.3352 18.9872 21.2195 19.1028C21.1038 19.2185 20.9469 19.2835 20.7834 19.2835H7.21736C7.05378 19.2835 6.8969 19.2185 6.78124 19.1028C6.66557 18.9872 6.60059 18.8303 6.60059 18.6667C6.60059 18.5031 6.66557 18.3463 6.78124 18.2306C6.8969 18.1149 7.05378 18.0499 7.21736 18.0499H20.7841C21.124 18.0499 21.4001 18.3261 21.4001 18.6667Z" fill="#F4900C"/>
    <path d="M20.5779 9.48884C20.5779 9.59796 20.5345 9.70261 20.4574 9.77977C20.3802 9.85693 20.2755 9.90028 20.1664 9.90028H7.8332C7.72845 9.89384 7.6301 9.84768 7.55821 9.77123C7.48632 9.69478 7.44629 9.59378 7.44629 9.48884C7.44629 9.38389 7.48632 9.2829 7.55821 9.20644C7.6301 9.12999 7.72845 9.08384 7.8332 9.07739L20.1664 9.07973C20.2203 9.07952 20.2737 9.08995 20.3236 9.11041C20.3734 9.13086 20.4188 9.16095 20.457 9.19895C20.4952 9.23695 20.5256 9.28212 20.5463 9.33186C20.567 9.3816 20.5778 9.43494 20.5779 9.48884ZM9.4782 9.96639H18.523V10.8888H9.4782V9.96639Z" fill="#F4900C"/>
    <path d="M9.88914 16.2004C9.88914 16.6546 9.64336 17.0225 9.34081 17.0225H8.79247C8.48992 17.0225 8.24414 16.6546 8.24414 16.2004V9.96725C8.24414 9.51303 8.48992 9.14514 8.79247 9.14514H9.34081C9.64336 9.14514 9.88914 9.51303 9.88914 9.96725V16.2004ZM19.756 16.2004C19.756 16.6546 19.511 17.0225 19.2077 17.0225H18.6594C18.3568 17.0225 18.111 16.6546 18.111 16.2004V9.96725C18.111 9.51303 18.356 9.14514 18.6594 9.14514H19.2077C19.5103 9.14514 19.756 9.51303 19.756 9.96725V16.2004ZM13.1784 16.2004C13.1784 16.6546 12.9326 17.0225 12.63 17.0225H12.0817C11.7791 17.0225 11.5334 16.6546 11.5334 16.2004V9.96725C11.5334 9.51303 11.7791 9.14514 12.0817 9.14514H12.63C12.9326 9.14514 13.1784 9.51303 13.1784 9.96725V16.2004ZM16.4668 16.2004C16.4668 16.6546 16.221 17.0225 15.9185 17.0225H15.3709C15.0684 17.0225 14.8226 16.6546 14.8226 16.2004V9.96725C14.8226 9.51303 15.0684 9.14514 15.3709 9.14514H15.9185C16.221 9.14514 16.4668 9.51303 16.4668 9.96725V16.2004Z" fill="#FFD983"/>
    <path d="M20.1672 16.6111C20.1672 17.0653 19.7993 17.4332 19.3451 17.4332H8.6561C8.43806 17.4332 8.22895 17.3465 8.07478 17.1924C7.9206 17.0382 7.83398 16.8291 7.83398 16.6111C7.83398 16.393 7.9206 16.1839 8.07478 16.0297C8.22895 15.8756 8.43806 15.7889 8.6561 15.7889H19.3451C19.7985 15.7889 20.1672 16.1568 20.1672 16.6111Z" fill="#FFCC4D"/>
    <path d="M20.989 17.4331C20.989 17.8873 20.6211 18.2552 20.1669 18.2552H7.83285C7.61482 18.2552 7.40571 18.1686 7.25153 18.0144C7.09736 17.8602 7.01074 17.6511 7.01074 17.4331C7.01074 17.215 7.09736 17.0059 7.25153 16.8518C7.40571 16.6976 7.61482 16.611 7.83285 16.611H20.1661C20.6203 16.611 20.989 16.9789 20.989 17.4331Z" fill="#FFD983"/>
    <path d="M21.4001 18.0499C21.4001 18.2135 21.3352 18.3703 21.2195 18.486C21.1038 18.6017 20.9469 18.6667 20.7834 18.6667H7.21736C7.13637 18.6667 7.05616 18.6507 6.98133 18.6197C6.9065 18.5887 6.83851 18.5433 6.78124 18.486C6.72396 18.4287 6.67853 18.3607 6.64754 18.2859C6.61654 18.2111 6.60059 18.1309 6.60059 18.0499C6.60059 17.9689 6.61654 17.8887 6.64754 17.8139C6.67853 17.739 6.72396 17.671 6.78124 17.6138C6.83851 17.5565 6.9065 17.5111 6.98133 17.4801C7.05616 17.4491 7.13637 17.4331 7.21736 17.4331H20.7841C21.124 17.4331 21.4001 17.7092 21.4001 18.0499Z" fill="#FFD983"/>
    <path d="M20.1672 9.55575C20.1672 9.10153 19.7744 8.73364 19.2907 8.73364H8.6561C8.17154 8.73364 7.83398 9.10153 7.83398 9.55575C7.83398 9.86453 7.99265 10.1305 8.24543 10.2713V10.7893H9.88965V10.3779H11.5339V10.7893H13.1781V10.3779H14.8223V10.7893H16.4665V10.3779H18.1108V10.7893H19.7558V10.2503C20.0023 10.1041 20.1672 9.8482 20.1672 9.55575Z" fill="#FFCC4D"/>
    <path d="M7.42188 8.91568C7.42188 8.49179 7.83799 8.32224 7.83799 8.32224L13.9653 5.44446L20.151 8.32224C20.151 8.32224 20.5772 8.41712 20.5772 8.91879V9.14512H7.42188V8.91568Z" fill="#FFD983"/>
    <path d="M13.9997 6.48901C13.9997 6.48901 9.75689 8.48868 9.33378 8.66912C8.90989 8.84879 9.05144 9.14435 9.33455 9.14435H18.6446C19.0817 9.14435 18.9782 8.81068 18.6313 8.63024C18.2844 8.45057 13.9997 6.48901 13.9997 6.48901Z" fill="#FFAC33"/>
    <path d="M20.5779 9.14435C20.5779 9.25348 20.5345 9.35813 20.4574 9.43529C20.3802 9.51245 20.2755 9.5558 20.1664 9.5558H7.8332C7.72845 9.54936 7.6301 9.5032 7.55821 9.42675C7.48632 9.3503 7.44629 9.2493 7.44629 9.14435C7.44629 9.03941 7.48632 8.93841 7.55821 8.86196C7.6301 8.78551 7.72845 8.73935 7.8332 8.73291L20.1664 8.73524C20.2203 8.73504 20.2737 8.74546 20.3236 8.76592C20.3734 8.78638 20.4188 8.81647 20.457 8.85447C20.4952 8.89247 20.5256 8.93763 20.5463 8.98738C20.567 9.03712 20.5778 9.09046 20.5779 9.14435Z" fill="#FFD983"/>
    </g>
    <defs>
    <clipPath id="clip0_2336_254">
    <rect width="28" height="28" fill="white"/>
    </clipPath>
    </defs>
</svg>
