<svg version="1.1" id="ƒŒƒCƒ_1" xmlns="http://www.w3.org/2000/svg" x="300px" y="300px" viewBox="0 0 440.1 263.1" style="enable-background:new 0 0 440.1 263.1;" xmlns:xlink="http://www.w3.org/1999/xlink" xml:space="preserve" data-inject-url="https://cdn.shopify.com/s/files/1/0014/1962/t/53/assets/logo-goemon.svg?v=8011611158666915057" class="injectable">
<path d="M81.8,78.1c0-1.4-0.1-2.8-0.1-4.1l-2.4,2.4c-3.1,3.2-5.9,6.4-8.6,9.7l1.2,3.2C75,85.4,78.3,81.7,81.8,78.1z"></path>
<path d="M124.1,44.6c23.5-14.4,51.2-26,81.8-33.4c22.2-5.4,45-8.2,67.9-8.2c75.4,0,136.6,31.8,149.1,83.4c3,12.9,3,26.3-0.1,39.1  l1.8,5.1c4.3-15.3,4.8-30.4,1.3-44.9c-6.2-25.8-24.3-47.6-52.4-63C346.4,7.8,311.9,0,273.9,0c-23.1,0.1-46.1,2.9-68.6,8.3  c-29.6,7.1-57.2,18.3-81.1,32.7v3.6H124.1z"></path>
<path d="M343.5,220c-24.8,14.7-51.7,25.5-79.7,32.1c-22.2,5.4-45,8.2-67.9,8.2c-35.5,0-67.8-7-93.4-19.9l-0.4,0.9l-0.9-1.6  c-22.7-11.7-40-28-49.2-48v6.7c9.2,16.7,24.2,31.1,44.3,42.1c27.1,14.9,61.6,22.7,99.6,22.7c23.1-0.1,46.1-2.9,68.6-8.3  c28.6-6.7,56.1-17.8,81.3-32.9l-1-1L343.5,220z"></path>
<path d="M354.9,212.7c-0.6,1.8-1,3.4-1.4,4.6c9.4-6.1,18.3-12.9,26.6-20.4c-1.6,0.3-3.5,0.7-5.8,1.1  C368.3,203,361.8,208,354.9,212.7z"></path>
<path d="M350.1,226.4v-0.2l-0.1-0.1L350.1,226.4z"></path>
<path d="M114.7,76.7l-0.3-4l3.9,0.9l2.6,0.6h0.1V43H84v14.1l0,0c0.6,17.8,1.1,33.5,1.6,48.1c0.4,12.2,0.7,22.4,0.8,30.4L49.3,39.3  L48.4,37l-2.1,1.4l-44.8,30l-1.5,1L0.9,71L22,110.3l-6.4,107.6l-0.1,1.7l1.7,0.3l29.4,5.9l2.4,0.5v-80.9l50.4,85.5l2.1,3.6l1.5-3.9  c4.6-12.2,8.8-34.2,12.5-65.6c1.2-10.5,2.3-20.3,3.1-29.4l-3.7-56L114.7,76.7z"></path>
<path d="M126.4,209.1c0.1,0,0.3-0.1,0.4-0.1h0.3c0.4,0.1,0.7,0.1,1.1,0.2l0.9,0.6c-0.1-0.6-0.2-1.1-0.2-1.7c-0.1-0.5-0.1-1-0.2-1.5  h-0.9c-0.8,0-1.5,0.1-2.2,0.4c-0.7,0.2-1.3,0.5-1.8,1c-0.1,0.3-0.1,0.7-0.2,1c-0.1,0.5-0.2,1.1-0.2,1.6c0.7,0.2,1.4,0.5,2,1  c0.6,0.5,1.1,1.1,1.3,1.9h-0.5c-0.6-0.1-1.1-0.3-1.6-0.6c-0.7-0.4-1.1-0.7-1.2-1c0.3,1.3,0.7,2.5,1,3.8c0.3,0,0.6,0.1,0.9,0.1  c0.5,0,1,0,1.5-0.1c0.4-0.1,0.8-0.2,1.2-0.4l0.6-0.3c0.1-0.1,0.2-0.2,0.3-0.2c0.2-0.7,0.4-1.5,0.5-2.2c-1.2-1.1-2.4-2.1-3.6-3.1  C126,209.2,126.2,209.2,126.4,209.1z"></path>
<path d="M135.2,207.1c-0.6-0.1-1.1-0.1-1.6-0.2s-1.2-0.3-1.7-0.4c-0.5,1.1-1,2.2-1.6,3.2h1.9c0.2,0,0.4,0,0.6,0.1v6.2  c1,0.1,1.9,0.1,2.8,0.2v-6.5h1.8c0.2-1.1,0.3-2.1,0.5-3.1C137,206.9,136.1,207.1,135.2,207.1z"></path>
<path d="M140.4,207.2c0.1,0.3,0.3,0.6,0.5,0.9c0.1,0.3,0.3,0.6,0.4,0.9c-0.1,0.3-0.3,0.6-0.5,0.8c-0.3,0.5-0.7,1.1-1,1.6  c-0.3,0.4-0.6,0.9-0.8,1.4c-0.2,0.4-0.4,0.9-0.6,1.3c-0.1,0.4-0.3,0.8-0.5,1.2c0.6,0.5,1.2,1,1.9,1.5c0.1-0.2,0.2-0.4,0.2-0.6  c0.1-0.2,0.2-0.5,0.3-0.7c0.8-0.1,1.5-0.1,2.2-0.2h0.9l0.6,2.1c0.9-0.8,1.8-1.5,2.6-2.3c-1.2-3-2.4-5.7-3.6-8.6  C142.2,206.7,141.3,207,140.4,207.2z M141.1,213.1c0.3-0.9,0.7-1.8,1-2.8c0.3,1,0.5,1.9,0.8,2.8  C142.3,213.2,141.7,213.2,141.1,213.1z"></path>
<path d="M153.5,213.3c0.5-0.4,0.9-1,1.2-1.6c0.2-0.5,0.4-1,0.4-1.6c0-0.2-0.1-0.6-0.1-0.8c-0.2-0.4-0.4-1-0.6-1.4  c-0.4-0.7-0.7-1-1-1h-6c0.4,1.3,0.7,2.6,1.1,4c-0.2,2-0.4,4-0.7,6.1c1,0.1,2,0.1,3,0.2c0-0.4-0.1-1.1-0.1-1.6c0-0.3-0.1-0.7-0.1-1  V214h0.8l1.5,3.9c1-0.9,1.9-1.7,2.8-2.6c-0.5-0.1-0.9-0.3-1.3-0.6C154.2,214.4,153.8,213.8,153.5,213.3z M152.1,211.9  c-0.3,0.3-0.6,0.4-1,0.4c-0.2,0-0.3-0.1-0.5-0.1v-1.5c0-0.4,0.1-1.1,0.1-1.5c0.2,0,0.3,0.1,0.5,0.1s0.6,0.1,0.8,0.2s0.3,0.5,0.4,0.7  s0.1,0.4,0.1,0.6C152.6,211.2,152.4,211.7,152.1,211.9L152.1,211.9z"></path>
<path d="M162.7,213.6c0.5-0.4,0.9-1,1.2-1.6c0.2-0.5,0.4-1.1,0.4-1.7c0-0.2-0.1-0.6-0.1-0.9c-0.2-0.4-0.4-1-0.6-1.4  c-0.4-0.7-0.7-1-1-1h-6c0.4,1.4,0.7,2.7,1.1,4.2c-0.2,2.1-0.4,4.2-0.7,6.4c1,0.1,2,0.1,3,0.2c0-0.4-0.1-1.2-0.1-1.6  s-0.1-0.8-0.1-1.1v-0.6h0.8c0.5,1.4,1,2.7,1.5,4.1c1-0.9,1.9-1.8,2.8-2.7c-0.5-0.1-1-0.3-1.3-0.7  C163.4,214.7,162.9,214.1,162.7,213.6z M161.3,212.1c-0.3,0.3-0.6,0.4-1,0.4c-0.2,0-0.3-0.1-0.5-0.1v-1.6c0-0.4,0.1-1.1,0.1-1.6  c0.2,0,0.3,0.1,0.5,0.1s0.6,0.1,0.8,0.2s0.3,0.5,0.4,0.7s0.1,0.5,0.1,0.6C161.8,211.3,161.7,211.8,161.3,212.1z"></path>
<path d="M166.9,218c0.8,0,1.5,0.1,2.3,0.1c0.5-3.6,0.9-6.8,1.4-10.3c-1.2-0.5-2.4-1-3.7-1.4L166.9,218z"></path>
<path d="M177.6,207.7c0,1.1,0.1,2.1,0.1,3.1c0,0.8,0,1.5,0.1,2.3v0.4c-1.1-2.4-2.1-4.6-3.2-6.9c-1.2,0.7-2.3,1.3-3.5,1.9  c0.6,0.9,1.1,1.7,1.6,2.6c-0.2,2.3-0.3,4.6-0.5,7.1c0.8,0.2,1.5,0.3,2.3,0.5V213c1.4,2.1,2.8,4.1,4.2,6.3c0.5-1.4,0.8-2.9,1-4.4  c0.3-1.7,0.4-3.3,0.4-5V207h-2.5V207.7z"></path>
<path d="M185.9,209.5c0.4,0,0.8,0.2,1,0.6c0.2,0.6,0.3,1.2,0.3,1.8c1-1.2,2-2.4,2.9-3.6c-1.7-0.6-3.3-1.2-5.1-1.8  c-0.7,0.8-1.3,1.5-1.8,2.2c-0.5,0.7-0.9,1.5-1.2,2.4c-0.3,1-0.4,2-0.4,3c0,0.3,0.1,0.8,0.1,1.1c0,0.1,0.1,0.4,0.1,0.6  c0.2,0.7,0.5,1.3,0.9,1.9c0.4,0.4,0.9,1.1,1.3,1.5c0.8-0.8,1.7-1.5,2.5-2.2c0.4,1.1,0.9,2.1,1.3,3.2c0.4-0.6,0.8-1.4,1-2.1  c0.2-0.8,0.4-1.7,0.4-2.5c0-0.3-0.1-1-0.1-1.4s-0.2-1.2-0.3-1.6c-1.1,1.1-2.1,2.1-3.2,3.1c-0.5-0.2-0.8-0.6-1-1.1  c-0.1-0.5-0.2-1-0.2-1.5c0-0.8,0.1-1.6,0.4-2.3C185,210,185.4,209.5,185.9,209.5z"></path>
<path d="M202,215.3c1-0.1,1.9,0.5,2.3,1.4c0.5,1.4,0.7,3,0.6,4.5c2.3-3,4.5-5.8,6.7-8.7c-3.9-1.5-7.7-2.9-11.6-4.4  c-1.5,1.6-2.9,3.3-4.2,5.1c-1.2,1.8-2.1,3.7-2.7,5.7c-0.7,2.5-1.1,5-1,7.6c0.1,1,0.1,1.9,0.2,2.9c0.1,0.5,0.2,1.1,0.3,1.6  c0.3,1.9,1.1,3.8,2.1,5.4c1,1.5,1.9,3,2.9,4.7c1.9-2.3,3.8-4.4,5.7-6.6c1,3.1,2,6.1,3,9.6c1.1-2,1.9-4.2,2.3-6.4  c0.6-2.3,0.9-4.7,0.9-7.1c0-1.2-0.1-2.4-0.2-3.7s-0.4-2.8-0.6-4.1c-2.5,2.7-4.9,5.4-7.4,8.2c-1.1-0.7-1.9-1.7-2.3-2.9  c-0.4-1.3-0.6-2.6-0.5-3.9c0-2,0.3-3.9,0.8-5.8C200,216.2,200.8,215.3,202,215.3z"></path>
<path d="M231.7,217.4c-0.2-0.6-0.4-1.6-0.6-2.5c-0.3-1-0.9-2-1.8-2.6c-1.5-1.1-3.1-2-4.7-2.8c-1.2-0.7-2.5-1.3-3.8-1.8  c-0.2,0-1,1-2.6,3.2c-1.1,1.4-2,2.8-2.9,4.3c-0.4,0.9-0.7,1.7-1.1,2.6c-0.4,0.9-0.6,1.8-0.8,2.8c-0.1,0.6-0.3,1.8-0.4,3  c0,0.6-0.1,2.1-0.1,2.7c0,1.6,0.2,3.2,0.5,4.8c0.2,1.5,0.6,3,1.1,4.4c3.2,2.4,6.4,4.7,9.6,7.2c0.2,0,0.8-1.2,2.1-3.4  s2.1-3.8,2.6-4.8s0.9-2.1,1.3-3.2s0.6-2.1,0.9-3.1c0.1-0.4,0.3-1.5,0.4-1.9s0.2-1,0.2-1.3c0.1-0.6,0.2-2,0.3-2.6  c0-0.4,0.1-1.6,0.1-2c0-0.5,0-0.9-0.1-1.4C231.9,218.5,231.8,217.9,231.7,217.4z M225.3,225.7c-0.1,1-0.3,2-0.6,3  c-0.2,0.5-0.7,1.9-0.9,2.4c-0.4,0.9-0.7,1.3-0.9,1.3l-0.6-0.3c-0.4-0.2-1-0.6-1.4-0.8c-0.6-0.3-1-1.1-1.3-2.3  c-0.3-1.2-0.4-2.5-0.4-3.8c0.1-2,0.3-3.9,0.8-5.8c0.5-2.4,1.1-3.4,1.9-3.4c0.5,0,1.1,0.4,2,1.3c0.6,0.5,1.1,1.1,1.4,1.8  c0,0.4,0.2,1.2,0.2,1.6s0.1,1.1,0.1,1.4C225.6,223.3,225.5,224.5,225.3,225.7z"></path>
<path d="M245.6,209.1c-1.2,0.1-2.3,0.1-3.5,0.2s-2.1-0.1-3.2-0.1c-0.9,0-1.7,0-2.6-0.1c-0.5,1.1-0.9,2.1-1.4,3.2  c-0.7,1.5-1.3,2.9-2,4.4h1l2.2-0.3c0.6-0.1,1.1-0.1,1.7-0.2c0,0.1,0.1,0.2,0.1,0.3V240l10.9-0.6c0.5-3.8,0.9-7.1,1.4-10.4  c0.2-1.3,0.4-2.5,0.6-3.7c-0.6,2-1.7,3.7-3.1,5.2c-1,1.1-2.4,1.7-3.9,1.9c-0.1,0-0.2,0-0.3,0.1c-0.1-0.1-0.3-0.1-0.4-0.2v-6.6h0.9  c0.3,0,0.7,0.3,1.3,1c0.4,0.5,0.7,1,1,1.6c0.1-1.4,0.3-2.8,0.5-4.4s0.5-2.8,0.7-4.2c-1.5,0-2.9,0.1-4.4,0.1v-4.3  c0.5-0.1,0.9-0.1,1.4-0.2c1,0.2,1.9,0.6,2.6,1.3c1,0.9,1.9,2,2.5,3.2c0.3-2,0.7-3.8,1-5.7c0.6-3.3,0.9-5,0.9-5.1v-0.6H251  C249.2,208.8,247.4,209,245.6,209.1z"></path>
<path d="M270.5,208c-1.8,4.5-3.6,8.9-5.5,13.9c-1.4-4.8-2.8-9-4.3-13.5c-2.3,1.5-4.5,3-6.9,4.6c0.4,1,0.9,1.9,1.3,2.9  c0.6,1.1,1,2.2,1.4,3.4c-1.2,5.8-2.3,11.9-3.5,19.3l5.9,1.2c0.2-2.5,0.3-4.7,0.5-6.9c0.3-3.7,0.5-6.4,0.6-8.7c0-0.1,0.1-0.2,0.1-0.3  c1.3,3.8,2.5,7.6,3.8,11.9c1.5-4.7,2.9-8.8,4.4-12.7c0,0.1,0,0.1,0.1,0.2s0.1,0.1,0.1,0.2c0.3,2.5,0.5,4.9,0.7,7.6v7.3  c2.3-1.4,4.4-2.7,6.7-3.9c-0.4-4.8-1-9.5-2-14.2C273.2,216,272.1,211.9,270.5,208z"></path>
<path d="M297.6,215.5c-0.2-0.6-0.4-1.3-0.6-2c-0.3-0.9-1-1.6-1.8-2.1c-1.5-0.9-3.1-1.7-4.7-2.3c-1.2-0.6-2.5-1.1-3.8-1.5  c-0.2,0-1,0.9-2.6,2.8c-1.1,1.2-2.1,2.5-2.9,3.9c-0.4,0.8-0.7,1.6-1.1,2.4c-0.4,0.8-0.6,1.6-0.8,2.5c-0.1,0.6-0.3,1.6-0.4,2.7  c0,0.6-0.1,1.8-0.1,2.3c0,1.4,0.2,2.8,0.5,4.1c0.2,1.2,0.6,2.4,1.1,3.6c3.2,1.5,6.4,2.9,9.6,4.2c0.8-0.9,1.5-1.9,2.1-3  c1.3-1.9,2.1-3.2,2.6-4.1s0.9-1.7,1.3-2.6c0.4-0.9,0.6-1.7,0.9-2.5c0.1-0.4,0.3-1.1,0.4-1.5c0.1-0.4,0.1-0.7,0.2-1  c0.1-0.6,0.2-1.5,0.3-2c0.1-0.5,0.1-1.2,0.1-1.6c0-0.4,0-0.7-0.1-1.1C297.7,216.3,297.6,215.9,297.6,215.5z M291.2,222.5  c-0.1,0.8-0.3,1.7-0.6,2.5c-0.3,0.7-0.6,1.4-0.9,2c-0.4,0.7-0.7,1.1-0.9,1.1s-0.4-0.1-0.6-0.2c-0.5-0.2-0.9-0.3-1.4-0.5  s-1-0.8-1.3-1.8c-0.3-1-0.4-2.1-0.4-3.1c0.1-1.7,0.4-3.4,0.8-5c0.5-2,1.1-3,1.9-3c0.8,0.1,1.5,0.5,2,1c0.6,0.4,1.1,0.9,1.4,1.5  c0.1,0.4,0.2,0.9,0.2,1.3c0,0.3,0.1,0.9,0.1,1.2L291.2,222.5z"></path>
<path d="M314.2,210c0.1,1.9,0.2,3.7,0.3,5.6c0.1,1.9,0.1,3.1,0.1,4.1v0.6c-2.4-3.9-4.8-7.9-7.2-12.3c-2.7,1.3-5.2,2.5-7.9,3.9  c1.3,1.7,2.5,3.3,3.8,4.9c-0.4,4.7-0.8,9.4-1.1,14.8l5.2-0.3V220c3,3.4,6.2,6.6,9.6,9.6c1-2.5,1.8-5.2,2.2-7.9  c0.6-2.8,0.9-5.6,1-8.5v-4.9c-2,0-3.9,0.1-5.8,0.1C314.2,208.9,314.2,209.4,314.2,210z"></path>
<path d="M156.4,32.2c-2.7,7.8-5.2,14.2-7.8,20.3c-2.1-5.4-4.1-10.4-6.2-15.5c-3.3,3-6.5,5.7-9.9,8.3c0.6,0.9,1.3,1.7,1.9,2.6  c0.7,1,1.4,2.1,2,3.2c-1.7,6.4-3.3,12-5,17.8c2.9,0.4,5.7,0.8,8.5,1.3c0.2-2,0.5-4,0.7-6c0.4-3.4,0.7-6.2,0.9-8.5  c0.1-0.1,0.1-0.2,0.2-0.3c1.8,3.9,3.6,7.7,5.5,11.8c2.2-4.3,4.2-8.6,6.4-13.5c0,0.1,0,0.1,0.1,0.2l0.2,0.2c0.4,2.9,0.7,5.7,1.1,8.6  v7.4c3.2-1.1,6.3-2.1,9.6-3.3c-0.6-5.8-1.6-11.7-2.9-17.4C160.4,43.5,158.6,37.8,156.4,32.2z"></path>
<path d="M188.3,26.5c-1.8,8.4-3.6,15.3-5.4,21.9c-0.6-3.6-1.6-7.2-2.9-10.6c-1.4-3.6-3.2-6.1-5.5-7.6c-1-0.6-1.9-1.1-2.9-1.7  c-1.7,5.5-3.3,10.3-4.9,15c0.8,0.2,1.6,0.3,2.5,0.5c1,0.4,1.9,1,2.8,1.6c1.2,0.8,2.5,2.5,3.9,5.3s2.2,4.9,2.2,6.6v11.7  c2.8,0,5.6,0,8.4-0.1v-12c3.6-8,7.1-16.5,10.7-27.1C194.3,28.6,191.3,27.5,188.3,26.5z"></path>
<path d="M209.6,37.7c0.4-0.3,0.8-0.5,1.3-0.6h1.1c1.2-0.1,2.5,0.2,3.6,0.7c1.2,0.7,2.3,1.7,3,2.9c-0.4-3.3-0.6-6.3-0.8-9.2  s-0.4-5.9-0.5-9.2c-1,0.1-2,0.1-3,0.2c-2.1,0.2-4.5,1.3-7.3,3.5c-2.5,1.8-4.5,4.1-6,6.8c-0.2,2-0.4,3.9-0.5,5.8  c-0.4,3.7-0.6,6.3-0.8,8.3c2.2,0.5,4.3,2,6.5,4.5c2.2,2.4,3.6,5.3,4.3,8.4h-1.8c-1.3,0-3-0.7-5.2-2.3s-3.5-3-4-4.5  c1.1,6,2.2,11.5,3.3,17.2h3c1.7-0.1,3.4-0.5,4.9-1.2c1.4-0.5,2.8-1.2,4-2.1c0.6-0.5,1.3-1,1.9-1.5s0.9-0.9,0.9-1.2  c0.6-3.4,1.2-6.7,1.8-10.4c-4-4.8-7.8-9.6-11.8-14.8C208.2,38.6,208.9,38.2,209.6,37.7z"></path>
<path d="M233.1,23.6c-1.9-0.6-3.9-1.4-5.7-2.3c-1.7,7.1-3.4,13.2-5.1,19.1c1-0.1,2.1-0.1,3.1-0.2c1.2-0.1,2.3-0.1,3.4-0.1  c0.7,0,1.4,0,2.1,0.2v28.5h9.3v-30c2,0,4,0,6,0.1c0.5-5.4,1-11,1.5-17.4c-4,2.2-7,3.3-9.2,3.3C236.7,24.6,234.9,24.2,233.1,23.6z"></path>
<path d="M252.8,68.8h7.4c1.6-12.2,3.1-24,4.7-40.1c-4.1-2.6-8-5.2-12.1-8V68.8z"></path>
<path d="M278.5,57.4c-1-2.4-1.5-5-1.4-7.6c0-3.9,0.3-6.7,1-8.4s1.3-3.1,1.5-3.5s0.6-0.9,0.8-0.9c1.5,0.2,2.8,1.6,4.3,4.3  c1.3,2.2,2,4.6,2.1,7.1c2.5-4.6,4.9-9.1,7.4-14.1c-2.5-2.3-5.2-4.3-8-6.2c-2.5-1.8-5.4-3.1-8.5-3.7c-0.5,0-1.4,1.2-2.9,3.9  s-2.5,4.6-3.1,6c-0.7,1.6-1.2,3.2-1.7,4.8c-0.5,1.6-0.8,3.2-1.1,4.8c-0.2,1.4-0.4,2.8-0.6,4.5c-0.1,1.1-0.1,2.2-0.2,3.3  c-0.1,4.4,1.1,8.7,3.4,12.4c2,3.4,5.3,5.6,9.2,6.2c3.8-3.9,7.4-7.5,11.2-11.2c-2.9,0.5-5.7,0.9-8.6,1.4  C281.2,60.8,279.1,59.5,278.5,57.4z"></path>
<path d="M301,31c0.5,1.6,1,3,1.6,4.5c0.9,2.6,1.4,3.9,1.4,4.1c-0.4,1.1-0.9,2.2-1.5,3.3c-1.1,2.2-2.2,4.3-3.3,6.5  c-1.2,2.4-2.1,4.1-2.7,5.5s-1.2,2.9-2,5c-0.6,1.5-1.1,3-1.5,4.6c2.1,1.9,4,3.6,6.1,5.4c0.3-0.8,0.5-1.5,0.8-2.3  c0.3-0.9,0.6-1.7,1-2.5c4.3-0.7,6.6-1,7.3-1c1-0.1,1.9-0.2,2.9-0.2c0.7,2.5,1.4,4.8,2.1,7.2c2.9-2.8,5.8-5.4,8.7-8  c-4.6-11-8.6-22.2-11.9-33.6C306.9,29.8,304.1,30.3,301,31z M303.3,56.5c1.1-3.5,2.2-7,3.2-10.7c0.9,3.9,1.8,7.5,2.7,11.1  C307.2,56.6,305.3,56.5,303.3,56.5L303.3,56.5z"></path>
<path d="M336.7,62c-0.3,0-0.5-0.1-0.8-0.1c-0.3,0-0.5-0.1-0.8-0.2c1.2-7.8,2.4-15.2,3.6-22.9c-4.6-0.8-9.2-1.4-13.8-1.8  c1.3,2.2,2.4,4.5,3.1,7c0.4,1.8,0.6,3.7,0.6,5.6c-0.5,6.8-1,13.1-1.5,19.6c5.7,0.1,11.2,0.1,17,0.2c0.1-1.5,0.1-2.9,0.2-4.4  c0-2,0.3-4,0.7-6c-1.1,1.2-2.5,2-4,2.5C339.6,61.9,338.1,62,336.7,62z"></path>
<polygon points="153.3,98.5 150.6,95.4 154.4,93.8 157,92.8 168.2,88 120.3,77.1 117.7,76.5 117.8,79.2 125.4,193.1 125.5,195.1   127.5,194.9 156.7,193 158.4,192.9 158.6,191.2 167.5,115 155.1,100.6 "></polygon>
<path d="M277.3,79.7h-37v9.8c0.6,11.1,1.1,20.9,1.6,30.1c0.4,7.4,0.7,13.7,0.8,18.6l-37.3-60.6l-0.9-1.5l-1.6,0.7l-44.8,18.7  l-2.5,1.1l1.8,2.1l20.8,24.2l-6.4,66.7l-0.2,1.9l1.9,0.2l29.4,3.7l2.3,0.3v-50.9l50.7,53.7l1.8,1.9l1.4-2.3c2.5-4.2,4.8-10,7.1-17.5  l-0.2-0.2c-11.5-11.5-13.5-13.5-13.9-13.8l-5.2-4.5l-7.8-6.8l10.2,1.6l6.8,1.1l14.9,2.3c0.2-1.1,0.5-2.3,0.7-3.5  c3.7-19.6,5.6-35.6,5.6-47.6V95l-2.2-1.8l2.2-0.7L277.3,79.7L277.3,79.7z"></path>
<path d="M336.8,176c-1.6,3.1-3.4,6-5.4,8.9c-1.9,2.9-4.9,5.4-8.8,7.8c-0.1,0.6-0.3,1.1-0.4,1.6l-0.3,1.1l0.8,0.8l24.1,22.8l2.4,2.3  l0.9-3.2c0.5-1.8,1.5-5.1,3-10c1.2-4.1,2.4-7.4,3.3-9.8c15.9-3.1,25.1-4.9,27.6-5.3c2.2-0.3,5.5-0.8,9.6-1.3  c2.7,10.4,5.3,20.9,8,31.3l0.9,3.6l2.5-2.8l34.3-38.4l0.8-0.9l-0.5-0.9L392.9,49.1l-0.7-1.9l-1.9,0.7L355.2,60l-1.9,0.7l0.7,1.9  c0.3,0.8,1.2,3.2,6.2,14.8c4.2,9.9,5.1,12.6,5.3,13.4c-0.2,0.7-1.2,3.3-5.7,12.6c-3.9,8.1-8.3,17.1-13,26.9c-1.6,3.3-3,6.3-4.4,9.1  c-1,10.7-1.9,18.5-2.6,23.2C339,169.1,338,173.4,336.8,176z M377.4,121.5l8.3,35.4h-18.3L377.4,121.5z"></path>
<path d="M345.6,78.4l0.3-3l-2.9,0.8l-58,17.1l-3.6,1.1l2.9,2.4c6.8,5.4,12.1,12.6,15.2,20.7c2.9,7.6,4.5,15.7,4.6,23.9  c0,5.9-1.5,11.7-4.4,16.9c-2.7,5.1-6.6,7.5-11.9,7.6l-32.2-5l-6.8-1.1l5.2,4.5c0.6,0.5,3.5,3.3,14,14c8.6,8.6,14.2,14.1,16.7,16.2  c3.6,3,4.9,3.6,6,3.6c1.1,0,2.1-0.1,3.2-0.3c7-0.1,13.9-1.6,20.3-4.5c7.2-3.1,12-6.5,14.6-10.3c1.9-2.7,3.6-5.6,5.2-8.5  c1.1-2.2,2-6.4,2.9-12.7c0.9-6.1,2.1-17.5,3.6-33.9c1.5-16.6,2.4-25.5,2.6-27.2L345.6,78.4z"></path>
</svg>
